<?xml version="1.0" encoding="UTF-8" standalone="no"?>
<svg
   xmlns:dc="http://purl.org/dc/elements/1.1/"
   xmlns:cc="http://creativecommons.org/ns#"
   xmlns:rdf="http://www.w3.org/1999/02/22-rdf-syntax-ns#"
   xmlns:svg="http://www.w3.org/2000/svg"
   xmlns="http://www.w3.org/2000/svg"
   xmlns:sodipodi="http://sodipodi.sourceforge.net/DTD/sodipodi-0.dtd"
   xmlns:inkscape="http://www.inkscape.org/namespaces/inkscape"
   width="100"
   height="23"
   viewBox="0 0 75 17.25"
   version="1.1"
   id="svg20"
   sodipodi:docname="Grupo_Planeta_logo.svg"
   inkscape:version="1.0.1 (3bc2e813f5, 2020-09-07)">
  <title
     id="title13">21Sextury logo</title>
  <metadata
     id="metadata26">
    <rdf:RDF>
      <cc:Work
         rdf:about="">
        <dc:format>image/svg+xml</dc:format>
        <dc:type
           rdf:resource="http://purl.org/dc/dcmitype/StillImage" />
        <dc:title>21Sextury logo</dc:title>
        <cc:license
           rdf:resource="http://scripts.sil.org/OFL" />
        <dc:date>4 ene 2021</dc:date>
      </cc:Work>
      <cc:License
         rdf:about="http://scripts.sil.org/OFL">
        <cc:permits
           rdf:resource="http://scripts.sil.org/pub/OFL/Reproduction" />
        <cc:permits
           rdf:resource="http://scripts.sil.org/pub/OFL/Distribution" />
        <cc:permits
           rdf:resource="http://scripts.sil.org/pub/OFL/Embedding" />
        <cc:permits
           rdf:resource="http://scripts.sil.org/pub/OFL/DerivativeWorks" />
        <cc:requires
           rdf:resource="http://scripts.sil.org/pub/OFL/Notice" />
        <cc:requires
           rdf:resource="http://scripts.sil.org/pub/OFL/Attribution" />
        <cc:requires
           rdf:resource="http://scripts.sil.org/pub/OFL/ShareAlike" />
        <cc:requires
           rdf:resource="http://scripts.sil.org/pub/OFL/DerivativeRenaming" />
        <cc:requires
           rdf:resource="http://scripts.sil.org/pub/OFL/BundlingWhenSelling" />
      </cc:License>
    </rdf:RDF>
  </metadata>
  <defs
     id="defs24" />
  <sodipodi:namedview
     pagecolor="#ffffff"
     bordercolor="#666666"
     borderopacity="1"
     objecttolerance="11.1"
     gridtolerance="13.2"
     guidetolerance="15.4"
     inkscape:pageopacity="0"
     inkscape:pageshadow="2"
     inkscape:window-width="1366"
     inkscape:window-height="745"
     id="namedview22"
     showgrid="false"
     units="px"
     showborder="true"
     inkscape:showpageshadow="false"
     inkscape:zoom="1"
     inkscape:cx="69.561313"
     inkscape:cy="-1.3485021"
     inkscape:window-x="-8"
     inkscape:window-y="-8"
     inkscape:window-maximized="1"
     inkscape:current-layer="svg20"
     inkscape:document-rotation="0" />
  <g
     id="#ffffffff" />
  <g
     id="g35"
     transform="matrix(0.10764791,0,0,0.10764791,78.094543,19.510382)">
    <path
       class="cls-1"
       d="M -32.835369,-175.72621 H -572.46037 v -1.2 l 4.05,-0.15 h 535.575001 v 1.5 z"
       id="path8"
       style="fill:#3b3b3b;stroke-width:0.75" />
    <path
       class="cls-1"
       d="m -572.83537,-24.226213 c 0.45,-0.45 0.825,-1.2 1.35,-1.275 a 23.4,23.4 0 0 1 3.75,-0.075 h 534.900001 c -0.225,0.525 -0.375,1.35 -0.75,1.425 a 10.5,10.5 0 0 1 -2.625,0.075 H -572.83537 Z"
       id="path10"
       style="fill:#3b3b3b;stroke-width:0.75" />
    <path
       id="path12"
       style="fill:#000000;stroke-width:0.75"
       d="m -537.67208,-145.55018 c -6.75469,0.14502 -13.22608,1.95702 -19.41358,5.82422 -13.275,8.32499 -18.22441,35.62411 3.22559,43.724113 4.575,1.725 9.14912,3.301178 13.72412,4.951178 2.925,1.05 6.00117,1.724115 8.70117,3.224115 1.425,0.825 2.09971,2.999707 3.07471,4.574707 -1.575,0.975001 -3.15058,2.776178 -4.72558,2.701178 -4.5,-0.15 -9.07442,-0.525292 -13.27442,-1.800292 -5.4,-1.650008 -10.50058,-4.35 -15.97558,-6.75 l -10.125,20.550292 c 5.02499,2.025 9.60087,4.19971 14.40087,5.69971 12.6,3.975 25.35,5.69941 38.25,1.27441 9.975,-3.45 15.97413,-11.475 16.72413,-21.375005 0.825,-11.4 -3.15,-20.024406 -13.875,-24.899406 -3.375,-1.50001 -5.8503,-2.4003 -10.4253,-4.0503 -4.575,-1.65 -9.29912,-2.925 -13.72412,-4.875 -1.35,-0.6 -2.99971,-3.15 -2.69971,-4.5 0.3,-1.35 2.69942,-3.07441 4.27442,-3.14941 a 28.95,28.95 0 0 1 9.89941,1.125 c 4.95,1.5 9.67588,3.74912 14.77588,5.84912 l 9.82471,-18.82471 a 76.5,76.5 0 0 0 -23.25,-8.47559 c -3.1875,-0.58593 -6.31641,-0.86425 -9.38672,-0.79833 z m 504.911131,0.49951 -19.125,0.14941 c -6.375,0 -6.29941,-5.9e-4 -8.77441,5.77441 l -12.89942,30.375 -2.10058,-4.9497 c -3.9,-9.45 -7.72442,-18.89941 -11.77442,-28.27441 -0.525,-1.12501 -1.80088,-2.77589 -2.77588,-2.77589 -7.72499,-0.225 -15.450001,-0.14941 -23.625001,-0.14941 0.975,2.1 1.7253,3.74941 2.5503,5.39941 8.1,15.75 16.199701,31.50118 24.074701,47.326181 a 20.175,20.175 0 0 1 1.875,8.173823 c 0.225,7.874997 0.0747,15.675587 0.0747,23.475587 h 23.25 c 0,-8.4 10e-4,-16.50059 0.0762,-24.600588 a 10.8,10.8 0 0 1 0.89939,-4.649414 c 6.9,-13.649999 13.9,-27.274999 21,-40.874999 2.25,-4.35 4.79971,-8.5497 7.19971,-12.8247 l 0.0747,-0.0747 z m -115.555661,0.0175 c -3,0.0187 -6.01905,0.13184 -9.01905,0.13184 h -24.0747 v 84.449701 h 23.25 v -25.124998 c 7.575,-1.349999 7.65058,-1.575292 11.47558,4.574708 3.825,6.15 7.57383,12.375 11.54883,18.375 a 5.925,5.925 0 0 0 4.0503,2.32618 c 5.09999,0.225 10.275,0.0747 15.375,0.0747 h 8.47558 l -18.90088,-30.900857 c 1.275,-1.2 2.17617,-1.949115 3.07617,-2.849115 8.25,-8.550009 11.02383,-18.525009 7.42383,-29.999999 -3.6,-11.475 -11.54941,-18.975 -23.77441,-20.625 -2.925,-0.375 -5.90625,-0.45089 -8.90625,-0.43214 z m -270.38379,0.12305 c -3.96563,-0.009 -7.99717,0.009 -12.15967,0.009 0.75,1.35 1.12441,2.17501 1.64941,3 8.025,12.225 15.97588,24.4506 24.15088,36.6006 1.575,2.325 1.87442,3.9744 0.14942,6.524404 -7.8,11.55 -15.37442,23.324417 -23.02442,35.024417 -0.675,0.975 -1.20058,2.02618 -2.10058,3.45118 8.25,0 15.90058,0.0738 23.47558,-0.0762 1.05,0 2.4,-1.12412 3,-2.09911 3.9,-6.67501 7.64912,-13.4253 11.47412,-20.175307 a 29.85,29.85 0 0 1 1.8003,-2.475585 c 4.425,7.800002 8.5497,15.150002 12.8247,22.500002 0.6,0.975 1.6503,2.25 2.5503,2.25 7.8,0.15 15.6,0.0762 24,0.0762 l -3.82471,-5.92529 c -7.2,-11.1 -14.4,-22.200599 -21.75,-33.225599 -1.2,-1.800002 -1.42588,-2.999712 -0.15088,-4.949712 7.95,-11.925 15.82617,-23.92529 23.70117,-35.92529 0.6,-0.825 1.275,-1.57471 1.875,-2.32471 l 0.82471,0.3003 v 18.14941 h 24.22412 v 63.750011 h 23.47559 V -124.5017 h 23.77441 v -20.17382 l -1.79883,-0.15088 c -30.675,0 -61.42529,-0.0753 -92.17529,0.0747 -1.35,0 -3.15088,1.27558 -3.90088,2.47558 -4.65,7.65 -9,15.45059 -13.875,23.85059 -4.875,-8.4 -9.22412,-16.05117 -13.72412,-23.70117 -0.6,-1.05 -1.72471,-2.625 -2.69971,-2.625 -3.9,-0.1125 -7.8,-0.14883 -11.76562,-0.1582 z m -73.95996,0.23438 v 84.224111 h 59.92529 v -20.099113 h -36.52588 v -13.425292 h 30.3003 v -18.824706 h -30.3003 v -11.625 h 35.47559 v -20.25 z m 274.1997,0 c 0,1.65 7.5e-4,2.99882 0.15088,4.42382 0,13.275 0.29913,26.55 -0.15088,39.75 a 37.425,37.425 0 0 1 -3.30029,13.576178 c -2.175,4.95 -7.2,6.973823 -12.375,6.673823 -5.175,-0.3 -9.07383,-2.848823 -10.79883,-7.423823 a 43.875,43.875 0 0 1 -2.92529,-13.725588 c -0.375,-12.975 -0.15088,-26.025 -0.15088,-39 v -4.1997 h -23.02441 a 6.525,6.525 0 0 0 -0.3003,1.2744 c 0,15.9 -0.22441,31.8 0.22559,47.625003 0.225,8.550001 2.69912,16.800288 8.47412,23.550288 11.4,13.35001 26.25117,14.92471 42.07617,10.94971 14.025,-3.525 23.84971,-15.52411 24.82471,-31.349113 1.05,-17.024998 0.52529,-34.200298 0.67529,-51.300288 a 2.55,2.55 0 0 0 -0.45117,-0.82471 z m 69.70899,20.22949 c 1.84922,0.0132 3.68847,0.0759 5.5166,0.24462 3.6,0.375 5.85,5.1003 5.25,10.0503 -0.6,4.95 -2.92471,7.4253 -7.19971,7.4253 h -12 a 3.6,3.6 0 0 1 -0.90088,-0.375 v -17.25 c 3.14063,0 6.25196,-0.1172 9.33399,-0.0952 z" />
    <path
       class="cls-3"
       d="m -653.76037,-111.52621 a 66.525,66.525 0 0 0 8.1,-33.825 c -0.525,-14.025 -10.2,-30.675 -27.525,-33.375 a 21.375,21.375 0 0 0 -3.6,-0.6 82.95,82.95 0 0 0 -9.9,0.075 l -2.55,0.45 c -19.425,3.6 -33.3,25.65 -28.425,45.225 h 21 c -0.375,-2.175 -0.75,-3.375 -0.75,-5.1 0.075,-8.325 1.8,-10.8 3.675,-14.025 4.95,-8.7 17.25,-9.6 22.125,-0.9 a 25.8,25.8 0 0 1 2.925,9.9 c 0.825,8.1 -1.2,15.9 -4.8,23.1 q -12.6,25.500001 -25.5,50.850001 l 31.275,-15.6 z"
       id="path24"
       style="fill:#d12327;stroke-width:0.75" />
    <path
       class="cls-3"
       d="m -599.83537,-179.47621 h -4.5 c -0.825,0.975 -1.575,2.25 -2.625,3 l -30.375,20.325 c -1.05,0.75 -2.85,1.575 -2.925,2.475 -0.225,6 -0.15,12.075 -0.15,19.275 l 19.5,-12 v 37.65 l 21.15,-10.575 q 0,-30.075 -0.075,-60.15 z"
       id="path26"
       style="fill:#d12327;stroke-width:0.75" />
    <path
       class="cls-4"
       d="m -720.28537,-27.601213 h 72.3 v -19.274996 h -40.275 l 2.55,-4.875 18,-33.6 -31.275,15.6 -11.925,23.7 c -3.075,6.149996 -6.225,12.149996 -9.375,18.449996 z"
       id="path28"
       style="fill:#b72025;stroke-width:0.75" />
    <path
       class="cls-4"
       d="m -599.91037,-27.601213 c 0.075,-1.35 0.225,-2.4 0.225,-3.525 q 0,-42.374996 0,-84.674997 0,-1.8 0,-3.525 l -21.15,10.575 v 81.149997 z"
       id="path30"
       style="fill:#b72025;stroke-width:0.75" />
  </g>
</svg>
