<?xml version="1.0" encoding="UTF-8" standalone="no"?>
<svg
   xmlns:dc="http://purl.org/dc/elements/1.1/"
   xmlns:cc="http://creativecommons.org/ns#"
   xmlns:rdf="http://www.w3.org/1999/02/22-rdf-syntax-ns#"
   xmlns:svg="http://www.w3.org/2000/svg"
   xmlns="http://www.w3.org/2000/svg"
   xmlns:sodipodi="http://sodipodi.sourceforge.net/DTD/sodipodi-0.dtd"
   xmlns:inkscape="http://www.inkscape.org/namespaces/inkscape"
   width="100"
   height="10"
   viewBox="0 0 75 7.4999994"
   version="1.1"
   id="svg20"
   sodipodi:docname="Brazzers logo.svg"
   inkscape:version="1.0.1 (3bc2e813f5, 2020-09-07)">
  <title
     id="title46">Brazzers logo</title>
  <metadata
     id="metadata26">
    <rdf:RDF>
      <cc:Work
         rdf:about="">
        <dc:format>image/svg+xml</dc:format>
        <dc:type
           rdf:resource="http://purl.org/dc/dcmitype/StillImage" />
        <dc:title>Brazzers logo</dc:title>
        <cc:license
           rdf:resource="http://scripts.sil.org/OFL" />
        <dc:date>15 ene 2021</dc:date>
      </cc:Work>
      <cc:License
         rdf:about="http://scripts.sil.org/OFL">
        <cc:permits
           rdf:resource="http://scripts.sil.org/pub/OFL/Reproduction" />
        <cc:permits
           rdf:resource="http://scripts.sil.org/pub/OFL/Distribution" />
        <cc:permits
           rdf:resource="http://scripts.sil.org/pub/OFL/Embedding" />
        <cc:permits
           rdf:resource="http://scripts.sil.org/pub/OFL/DerivativeWorks" />
        <cc:requires
           rdf:resource="http://scripts.sil.org/pub/OFL/Notice" />
        <cc:requires
           rdf:resource="http://scripts.sil.org/pub/OFL/Attribution" />
        <cc:requires
           rdf:resource="http://scripts.sil.org/pub/OFL/ShareAlike" />
        <cc:requires
           rdf:resource="http://scripts.sil.org/pub/OFL/DerivativeRenaming" />
        <cc:requires
           rdf:resource="http://scripts.sil.org/pub/OFL/BundlingWhenSelling" />
      </cc:License>
    </rdf:RDF>
  </metadata>
  <defs
     id="defs24" />
  <sodipodi:namedview
     pagecolor="#ffffff"
     bordercolor="#666666"
     borderopacity="1"
     objecttolerance="1"
     gridtolerance="1"
     guidetolerance="1"
     inkscape:pageopacity="0"
     inkscape:pageshadow="2"
     inkscape:window-width="1366"
     inkscape:window-height="745"
     id="namedview22"
     showgrid="false"
     units="px"
     showborder="true"
     inkscape:showpageshadow="false"
     inkscape:zoom="8"
     inkscape:cx="45.440026"
     inkscape:cy="-5.6299793"
     inkscape:window-x="-8"
     inkscape:window-y="-8"
     inkscape:window-maximized="1"
     inkscape:current-layer="svg20"
     inkscape:document-rotation="0" />
  <g
     id="#ffffffff" />
  <g
     id="#000000ff"
     transform="matrix(0.02858967,0,0,0.02950653,0.28489394,0.30375095)"
     style="fill:#000000">
    <g
       id="g176">
      <path
         id="path3"
         style="fill:#000000;stroke-width:0.10673"
         d="m 154.0957,35.048828 c -0.001,8.457406 -0.001,16.914772 0,25.371094 8.46461,0.0011 16.92993,0.0011 25.39453,0 0,-1.590643 0.001,-3.183664 0,-4.775391 -6.55778,-0.0022 -13.11604,0.0022 -19.67382,0 0,-2.095918 -10e-4,-4.19119 0,-6.287109 3.78317,-0.0011 7.56553,2.15e-4 11.34765,-0.002 0,-1.439928 0.001,-2.880385 0,-4.320313 -3.78212,-0.0022 -7.56448,0.0022 -11.34765,0 -10e-4,-1.887736 -10e-4,-3.774373 0,-5.662109 6.48004,-0.0011 12.95941,2.15e-4 19.43945,-0.002 10e-4,-1.441012 10e-4,-2.881254 0,-4.322266 z m 34.45313,0 c -0.001,8.457406 -0.001,16.914772 0,25.371094 1.8753,0.0011 3.7506,0.0011 5.62695,0 0.001,-3.191044 -0.001,-6.383175 0.002,-9.574219 h 5.41602 c 3.30516,3.18996 6.6041,6.384259 9.9082,9.574219 2.73574,-0.0011 5.4713,0.0024 8.20703,-0.002 -3.78107,-3.191045 -7.56372,-6.379053 -11.34375,-9.572266 1.07476,-0.0022 2.14971,0.0035 3.22657,-0.002 1.10837,-0.01084 2.24581,-0.11253 3.27539,-0.572266 0.67448,-0.297093 1.26931,-0.805169 1.63281,-1.46875 0.49273,-0.8761 0.62065,-1.912615 0.62695,-2.910156 0.004,-1.662205 9.1e-4,-3.324991 0.002,-4.988281 0.002,-0.978023 0.0268,-1.978334 -0.25586,-2.923828 -0.24269,-0.878269 -0.78882,-1.679798 -1.56836,-2.13086 -1.07896,-0.638642 -2.35358,-0.760662 -3.57227,-0.800781 z m -211.232424,0.132813 c -0.001,8.457405 0,16.916725 0,25.373047 6.13545,0.0022 12.270801,0 18.4062502,0 1.6189603,0.01193 3.2642539,0.01595 4.83593755,-0.439454 0.99070705,-0.284082 1.97213905,-0.775784 2.63085935,-1.617187 0.6261521,-0.783937 0.885224,-1.815613 0.8925781,-2.816406 0.00105,-1.180784 0.0087,-2.360232 -0.00391,-3.541016 C 4.0571132,50.979358 3.6681818,49.796489 2.8613281,48.964844 2.0250579,48.071395 0.84027991,47.635083 -0.33007812,47.474609 1.0976746,47.296787 2.6284884,46.701279 3.3828125,45.353516 4.031027,44.2508 3.8807255,42.920983 3.8964844,41.691406 3.8807255,40.329547 4.0070966,38.899679 3.4628906,37.619141 3.1182969,36.761473 2.4249153,36.079177 1.5917969,35.734375 c -0.94553166,-0.41528 -1.98302823,-0.5137 -3,-0.552734 z M 13.125,35.316406 c -0.0011,8.457406 -0.0011,16.914772 0,25.371094 1.875304,0.0011 3.750598,0.0011 5.626953,0 0.0011,-3.191044 -0.0032,-6.383174 0,-9.574219 h 5.416016 c 3.305158,3.18996 6.606048,6.386212 9.910156,9.576172 2.735738,-0.0011 5.46934,2.16e-4 8.205078,-0.002 -3.780025,-3.192129 -7.563725,-6.379922 -11.34375,-9.574219 1.31639,-0.01193 2.634782,0.02644 3.951172,-0.02344 1.238646,-0.07915 2.563804,-0.317037 3.529297,-1.185547 0.945532,-0.864174 1.254231,-2.225954 1.277344,-3.480469 0.01576,-1.677385 0.0036,-3.353864 0.0078,-5.03125 0.0032,-1.271864 0.05667,-2.611747 -0.498047,-3.787109 -0.365605,-0.818634 -1.066045,-1.442724 -1.875,-1.763672 -0.957088,-0.4001 -2.002115,-0.491778 -3.02539,-0.525391 z m 215.76758,0.240235 c -0.34643,0.0051 -0.6921,0.034 -1.0332,0.125 -1.87377,0.489009 -3.53184,2.09901 -3.61915,4.048828 l -0.0469,5.359375 c -0.0234,1.330269 0.20683,2.80454 1.24805,3.759765 1.00503,1.116847 2.59527,1.593531 4.08789,1.529297 5.07409,-0.01037 15.2207,-0.0059 15.2207,-0.0059 v 5.175781 c 0,0 -11.21959,-0.0089 -16.82812,0.0098 0.004,-0.723154 -5.3e-4,-1.446768 0.006,-2.169922 l -5.33593,-0.02539 c 0.0298,1.125135 -0.019,2.251937 0.0215,3.375 0.27255,1.044324 0.92531,1.991472 1.80469,2.650391 0.86236,0.737658 2.17367,0.97573 3.28515,0.990234 l 17.9961,0.02344 c 1.67788,-0.132614 3.34936,-1.09131 4.03711,-2.63086 0.73304,-1.795926 0.69494,-7.627939 -0.14063,-9.876953 -0.62387,-1.234955 -1.95578,-1.987016 -3.29297,-2.28125 -5.55956,-0.01865 -16.67968,-0.002 -16.67968,-0.002 v -5.1875 c 0.0442,0.03585 15.22656,0 15.22656,0 l -0.0156,2.400391 5.66602,-0.002 c -0.0277,-0.897207 0.0191,-1.796153 -0.0234,-2.69336 -0.15969,-1.413152 -0.85573,-2.843522 -2.08008,-3.664062 -0.81125,-0.631981 -1.89002,-0.740453 -2.88867,-0.804688 l -15.57031,-0.08594 c -0.34749,-0.0041 -0.69654,-0.02254 -1.04297,-0.01758 z M 53.101562,35.763672 c -0.921662,-0.01041 -1.878886,0.125704 -2.664062,0.560547 -0.871664,0.4626 -1.430845,1.275408 -1.613281,2.128906 -0.16352,0.778326 -0.07406,1.572954 -0.0957,2.359375 0,6.398918 -0.0013,12.797192 0,19.197266 -0.04054,0.254432 0.117225,0.559059 0.455078,0.568359 1.443313,0.02549 2.887969,0.0075 4.333984,0.0098 0.308126,0.03123 0.625597,-0.174051 0.591797,-0.455079 0.0175,-3.075137 0.0026,-6.149474 0.0078,-9.224609 5.138086,0 10.276575,-0.0011 15.416015,0 0.0041,3.073979 -0.0084,6.146724 0.0078,9.220703 -0.03784,0.279874 0.275108,0.489065 0.585937,0.458985 1.352763,0.007 2.70643,-6.94e-4 4.060547,0.0039 0.247311,0.0069 0.546646,-0.01688 0.677734,-0.228516 0.09055,-0.264839 0.04786,-0.546581 0.05859,-0.818359 -0.004,-6.706547 -6.53e-4,-13.411437 -0.002,-20.119141 0.01216,-0.903228 -0.248893,-1.851818 -0.957031,-2.546875 -0.771662,-0.7737 -1.990874,-1.107828 -3.150391,-1.111328 -5.904336,-0.0081 -11.808548,-0.0016 -17.712891,-0.0039 z m -70.158203,3.552734 c 4.366255,-0.0011 8.7314017,-0.0022 13.0976566,0 0.6282533,0.01518 1.2896588,0.03515 1.8632813,0.330078 0.4969294,0.254807 0.7100349,0.852175 0.7089843,1.396485 0.0063,0.864173 0.0063,1.727623 0,2.591797 0,0.543225 -0.2018451,1.151659 -0.7050781,1.404296 -0.5767743,0.289504 -1.2359305,0.30817 -1.8652343,0.322266 -4.3673056,0.0011 -8.7333548,0.0011 -13.0996098,0 z m 211.234371,0.126953 c 4.33054,0.0022 8.66166,-0.0035 12.99219,0.002 0.60514,0.01952 1.24606,0.04776 1.78711,0.363282 0.50218,0.312273 0.6498,0.965254 0.6582,1.53125 0.003,1.082114 0.005,2.164848 0,3.248047 -0.009,0.565995 -0.14625,1.222236 -0.64843,1.541015 -0.57152,0.336128 -1.25472,0.353961 -1.89453,0.369141 -4.29902,0.0011 -8.59852,0.002 -12.89649,0.002 0,-2.352894 -1.5e-4,-4.704831 0.002,-7.056641 z M 18.751953,39.710938 c 4.294815,0.0011 8.590854,-2.16e-4 12.886719,0.002 0.642961,0.01518 1.326768,0.03193 1.90039,0.36914 0.49693,0.315527 0.643037,0.961779 0.650391,1.523438 0.0053,1.082114 0.0053,2.163979 0,3.246093 -0.0063,0.586597 -0.160118,1.275611 -0.701172,1.578126 -0.566268,0.303599 -1.224508,0.325963 -1.849609,0.33789 -4.294815,0.0011 -8.590854,0 -12.886719,0 0,-2.352893 -0.0021,-4.704831 0,-7.05664 z m 37.189453,0.167968 c 3.917758,-0.0011 7.836755,0 11.75586,0 0.535164,-0.01619 1.111668,0.123264 1.458984,0.492188 0.310838,0.311099 0.385053,0.733383 0.376953,1.128906 -0.0013,1.76482 0,3.529306 0,5.292969 -5.13944,0.0011 -10.277932,0.0011 -15.416015,0 0,-1.800672 -0.0019,-3.601673 0.002,-5.402344 -0.0068,-0.411715 0.124019,-0.848687 0.490234,-1.136719 0.351366,-0.291437 0.85633,-0.3819 1.332031,-0.375 z m -72.998047,9.660156 c 4.436645,0.0033 8.8730002,-0.0069 13.3085941,0.0039 0.7112499,0.04229 1.542916,0.06074 2.0703125,0.628906 0.562066,0.724301 0.4083796,1.714167 0.4335938,2.576172 -0.024164,0.864173 0.1263853,1.846887 -0.4199219,2.582031 -0.51584,0.596356 -1.3683841,0.616785 -2.0859375,0.660156 -4.4355939,0.0098 -8.869996,0.0028 -13.306641,0.0039 0.0021,-2.151217 -0.001,-4.303861 0,-6.455079 z"
         transform="matrix(9.5184547,0,0,9.2226862,216.67998,-324.47808)" />
      <path
         id="path9"
         style="fill:#fbcb29;fill-opacity:1;stroke-width:0.10673"
         d="m 120.78906,35.316406 c -0.006,1.512575 -0.002,3.026488 -0.002,4.539063 5.1542,0.0011 10.30779,-2.16e-4 15.46094,0.002 -5.72572,6.028612 -11.45998,12.048428 -17.1836,18.078125 0.002,0.917303 9.1e-4,1.83465 0.002,2.751953 8.79869,0.0011 17.59583,0.002 26.39453,0.002 -10e-4,-1.591727 -9.1e-4,-3.183663 -0.002,-4.775391 -5.81291,-0.0022 -11.62548,2.16e-4 -17.43945,-0.002 5.81187,-6.021022 11.61843,-12.04603 17.43555,-18.060547 0.0126,-0.844656 0.004,-1.6905 0.004,-2.535156 z m -35.283201,0.134766 c -0.0063,1.512574 -0.002,3.026488 -0.002,4.539062 5.154198,0.0011 10.309743,-0.0022 15.462891,0 -5.725719,6.028613 -11.461929,12.049298 -17.185547,18.080078 0.0042,0.917304 -1.48e-4,1.83465 0.002,2.751954 8.798697,0.0022 17.597787,0.0011 26.396487,0 -10e-4,-1.590643 -9.1e-4,-3.181711 -0.002,-4.773438 -5.81291,-0.0022 -11.62548,2.16e-4 -17.439449,-0.002 5.811868,-6.019938 11.615419,-12.047114 17.433599,-18.060547 0.0136,-0.84574 0.004,-1.689416 0.004,-2.535156 z"
         transform="matrix(9.5184547,0,0,9.2226862,216.67998,-324.47808)" />
    </g>
  </g>
</svg>
