<?xml version="1.0" encoding="UTF-8" standalone="no"?>
<svg
   xmlns:dc="http://purl.org/dc/elements/1.1/"
   xmlns:cc="http://creativecommons.org/ns#"
   xmlns:rdf="http://www.w3.org/1999/02/22-rdf-syntax-ns#"
   xmlns:svg="http://www.w3.org/2000/svg"
   xmlns="http://www.w3.org/2000/svg"
   xmlns:sodipodi="http://sodipodi.sourceforge.net/DTD/sodipodi-0.dtd"
   xmlns:inkscape="http://www.inkscape.org/namespaces/inkscape"
   viewBox="0 0 100 18"
   version="1.1"
   id="svg34"
   sodipodi:docname="devilsfilm-logo.svg"
   width="100"
   height="18"
   inkscape:version="0.92.4 (5da689c313, 2019-01-14)">
  <metadata
     id="metadata38">
    <rdf:RDF>
      <cc:Work
         rdf:about="">
        <dc:format>image/svg+xml</dc:format>
        <dc:type
           rdf:resource="http://purl.org/dc/dcmitype/StillImage" />
        <dc:title>Devil's Film logo</dc:title>
        <cc:license
           rdf:resource="http://scripts.sil.org/OFL" />
      </cc:Work>
      <cc:License
         rdf:about="http://scripts.sil.org/OFL">
        <cc:permits
           rdf:resource="http://scripts.sil.org/pub/OFL/Reproduction" />
        <cc:permits
           rdf:resource="http://scripts.sil.org/pub/OFL/Distribution" />
        <cc:permits
           rdf:resource="http://scripts.sil.org/pub/OFL/Embedding" />
        <cc:permits
           rdf:resource="http://scripts.sil.org/pub/OFL/DerivativeWorks" />
        <cc:requires
           rdf:resource="http://scripts.sil.org/pub/OFL/Notice" />
        <cc:requires
           rdf:resource="http://scripts.sil.org/pub/OFL/Attribution" />
        <cc:requires
           rdf:resource="http://scripts.sil.org/pub/OFL/ShareAlike" />
        <cc:requires
           rdf:resource="http://scripts.sil.org/pub/OFL/DerivativeRenaming" />
        <cc:requires
           rdf:resource="http://scripts.sil.org/pub/OFL/BundlingWhenSelling" />
      </cc:License>
    </rdf:RDF>
  </metadata>
  <sodipodi:namedview
     pagecolor="#ffffff"
     bordercolor="#666666"
     borderopacity="1"
     objecttolerance="10"
     gridtolerance="10"
     guidetolerance="10"
     inkscape:pageopacity="0"
     inkscape:pageshadow="2"
     inkscape:window-width="1366"
     inkscape:window-height="705"
     id="namedview36"
     showgrid="false"
     inkscape:showpageshadow="false"
     inkscape:zoom="11.087434"
     inkscape:cx="48.928028"
     inkscape:cy="13.318992"
     inkscape:window-x="-8"
     inkscape:window-y="-8"
     inkscape:window-maximized="1"
     inkscape:current-layer="svg34" />
  <defs
     id="defs4">
    <style
       id="style2">.cls-1{fill:#eb2227;}</style>
  </defs>
  <title
     id="title6">Devil's Film logo</title>
  <path
     style="fill:#eb2227;fill-opacity:1;stroke-width:0.1608799"
     d="m 23.929329,0.39469 a 4.7781328,4.7781328 0 0 1 0.03234,1.254675 7.7222349,7.7222349 0 0 0 -3.12113,-0.643519 c -4.552901,0 -8.236926,3.571722 -8.236926,8.156799 0,4.585077 3.651847,7.97958 8.076046,7.97958 a 8.4783702,8.4783702 0 0 0 3.28201,-0.691909 4.7781328,4.7781328 0 0 1 -0.03234,1.222625 45.271601,45.271601 0 0 1 2.992621,-5.067718 c -2.155794,1.480095 -4.649492,1.608799 -4.649492,1.608799 a 2.1075266,2.1075266 0 0 1 0.981303,0.547054 6.08126,6.08126 0 0 1 -2.638494,0.61147 c -3.249776,0 -5.759435,-2.574141 -6.049018,-5.695211 h 10.553658 a 3.2015099,3.2015099 0 0 1 -0.482641,0.852789 13.143887,13.143887 0 0 1 4.826396,-1.737629 17.037181,17.037181 0 0 1 -4.745957,-1.673214 2.7832222,2.7832222 0 0 1 0.418223,0.820425 h -10.48924 c 0.514814,-2.895837 2.944165,-5.164181 6.016969,-5.164181 a 6.3708439,6.3708439 0 0 1 2.574077,0.547054 2.1236146,2.1236146 0 0 1 -0.965276,0.531029 c 0,0 2.493698,0.128705 4.649492,1.6088 A 45.271601,45.271601 0 0 1 23.929329,0.39469 Z M 85.852066,0.668061 82.698883,16.80444 h 1.978948 L 86.49558,6.588566 h 0.03238 l 4.649187,10.553659 4.63346,-10.553659 h 0.03207 l 1.81807,10.215874 h 1.994974 L 96.486195,0.668061 91.177159,12.862882 Z m -31.065848,0.33747 a 4.4081091,4.4081091 0 0 0 -0.01604,3.22e-4 c -2.332767,0 -4.553032,1.496246 -4.553032,4.005972 0,2.155791 1.608866,3.169397 3.36246,3.925532 l 1.061734,0.450276 c 1.335311,0.546992 2.670549,1.27114 2.670549,2.928203 0,1.657063 -1.190385,3.008328 -2.847453,3.008328 -1.657057,0 -3.02447,-1.222561 -2.992295,-2.927889 l -1.946586,0.418217 c 0.321757,2.477551 2.284369,4.327733 4.778003,4.327733 2.767138,0 4.955228,-2.010999 4.955228,-4.826396 0,-2.8154 -1.657119,-3.796767 -3.845095,-4.665518 L 54.303579,7.215746 c -0.96528,-0.370023 -2.155852,-1.013354 -2.155852,-2.219953 0,-1.206599 1.351326,-2.204243 2.590109,-2.204243 1.238774,0 1.914525,0.498979 2.477609,1.464258 l 1.54439,-0.917204 A 4.4081091,4.4081091 0 0 0 54.786228,1.005531 Z M 0.40881412,1.327606 V 16.80444 H 3.5459762 c 4.8907449,0 8.7519258,-2.542154 8.7519258,-7.819015 0,-5.27686 -3.9415559,-7.657819 -8.6875134,-7.657819 z m 25.08123988,0 2.76701,6.708879 a 21.04309,21.04309 0 0 0 2.332759,0.691596 L 27.613544,1.327606 Z m 11.342029,0 -4.601101,11.454837 -1.592774,-3.957897 a 14.205694,14.205694 0 0 0 -1.86614,0.45059 l 3.458914,8.349728 6.70857,-16.297258 z m 2.380836,0 v 15.479976 h 1.930562 V 1.327606 Z m 3.217601,0 V 16.80444 h 6.62844 V 15.050787 H 44.361077 V 1.327606 Z m 21.783197,0 V 16.80444 h 1.930561 V 9.21072 h 5.373449 V 7.441041 H 66.144278 V 3.097285 h 5.566379 V 1.327606 Z m 8.671486,0 v 15.479976 h 1.93057 V 1.327606 Z m 3.137168,0 V 16.80444 h 6.628124 V 15.050787 H 77.952921 V 1.327606 Z m -28.926338,0.03236 c 0,0 0.321947,2.123426 -0.611155,5.196231 0,0 2.107463,-2.25213 3.233621,-5.196231 z M 2.3393765,3.097281 h 0.6755678 c 3.9415557,0 7.3523987,1.463945 7.3523987,5.968582 0,4.504637 -3.410843,5.984921 -7.3523987,5.984921 H 2.3393765 Z"
     id="path8"
     inkscape:connector-curvature="0" />
</svg>
