<?xml version="1.0" encoding="UTF-8" standalone="no"?>
<svg
   xmlns:dc="http://purl.org/dc/elements/1.1/"
   xmlns:cc="http://creativecommons.org/ns#"
   xmlns:rdf="http://www.w3.org/1999/02/22-rdf-syntax-ns#"
   xmlns:svg="http://www.w3.org/2000/svg"
   xmlns="http://www.w3.org/2000/svg"
   xmlns:sodipodi="http://sodipodi.sourceforge.net/DTD/sodipodi-0.dtd"
   xmlns:inkscape="http://www.inkscape.org/namespaces/inkscape"
   viewBox="0 0 100 21"
   version="1.1"
   id="svg34"
   sodipodi:docname="Trans500 logo.svg"
   width="100"
   height="21"
   inkscape:version="0.92.4 (5da689c313, 2019-01-14)">
  <title
     id="title38">Fake Taxi  logo</title>
  <metadata
     id="metadata38">
    <rdf:RDF>
      <cc:Work
         rdf:about="">
        <dc:format>image/svg+xml</dc:format>
        <dc:type
           rdf:resource="http://purl.org/dc/dcmitype/StillImage" />
        <dc:title>Fake Taxi  logo</dc:title>
        <cc:license
           rdf:resource="http://scripts.sil.org/OFL" />
        <dc:date>14 enero 2020</dc:date>
        <dc:creator>
          <cc:Agent>
            <dc:title>EEIM</dc:title>
          </cc:Agent>
        </dc:creator>
      </cc:Work>
      <cc:License
         rdf:about="http://scripts.sil.org/OFL">
        <cc:permits
           rdf:resource="http://scripts.sil.org/pub/OFL/Reproduction" />
        <cc:permits
           rdf:resource="http://scripts.sil.org/pub/OFL/Distribution" />
        <cc:permits
           rdf:resource="http://scripts.sil.org/pub/OFL/Embedding" />
        <cc:permits
           rdf:resource="http://scripts.sil.org/pub/OFL/DerivativeWorks" />
        <cc:requires
           rdf:resource="http://scripts.sil.org/pub/OFL/Notice" />
        <cc:requires
           rdf:resource="http://scripts.sil.org/pub/OFL/Attribution" />
        <cc:requires
           rdf:resource="http://scripts.sil.org/pub/OFL/ShareAlike" />
        <cc:requires
           rdf:resource="http://scripts.sil.org/pub/OFL/DerivativeRenaming" />
        <cc:requires
           rdf:resource="http://scripts.sil.org/pub/OFL/BundlingWhenSelling" />
      </cc:License>
    </rdf:RDF>
  </metadata>
  <sodipodi:namedview
     pagecolor="#ffffff"
     bordercolor="#666666"
     borderopacity="1"
     objecttolerance="10"
     gridtolerance="10"
     guidetolerance="10"
     inkscape:pageopacity="0"
     inkscape:pageshadow="2"
     inkscape:window-width="1366"
     inkscape:window-height="705"
     id="namedview36"
     showgrid="false"
     inkscape:showpageshadow="false"
     inkscape:zoom="1"
     inkscape:cx="58.207956"
     inkscape:cy="7.2165546"
     inkscape:window-x="-8"
     inkscape:window-y="-8"
     inkscape:window-maximized="1"
     inkscape:current-layer="svg34" />
  <defs
     id="defs4">
    <style
       id="style2">.cls-1{fill:#eb2227;}</style>
  </defs>
  <g
     transform="matrix(0.107747,0,0,0.107747,-3.7635321,-42.249201)"
     id="#231f20ff">
    <path
       style="opacity:1;fill:#231f20"
       inkscape:connector-curvature="0"
       d="m 510.49,421.23 c 5.95,-13.01 19.15,-22.25 33.52,-22.73 120.99,0.01 241.99,-0.01 362.98,0.01 17.75,0.85 32.71,15.3 35.77,32.53 5.71,40.69 11.25,81.41 16.93,122.11 0.76,6.85 0.11,14.47 -4.61,19.9 -5,6.27 -13.47,8.05 -21.09,8.19 -139.33,0 -278.65,0.01 -417.98,-0.01 -10.43,0.32 -21.92,-4.78 -24.92,-15.55 -47.69,-0.13 -95.38,-0.01 -143.07,-0.06 -3.61,0.18 -6.96,-2.23 -7.96,-5.7 -4.97,-14.11 -9.83,-28.27 -14.65,-42.43 -4.87,4.13 -10.1,7.87 -14.74,12.26 -2.94,9.99 -3.82,20.53 -6.45,30.62 -0.82,3.62 -4.74,5.36 -8.16,5.25 -24.71,0.01 -49.42,0.02 -74.12,0 -3.7,0.15 -7.77,-2.03 -8.39,-5.94 -0.9,-5.25 -1.44,-10.55 -2.22,-15.8 -12.14,0.01 -24.29,-0.01 -36.44,-0.02 -3.08,5.72 -5.7,11.68 -8.7,17.45 -1.41,3.08 -4.91,4.53 -8.16,4.34 -13.34,-0.1 -26.69,0.11 -40.03,-0.1 -5.25,-0.12 -9.4,-6.42 -6.6,-11.14 7.42,-13.14 15.02,-26.18 22.55,-39.26 -10.07,0.03 -20.13,0.03 -30.19,-0.02 -2.84,14.54 -5.36,29.15 -8.16,43.71 -0.54,3.69 -3.77,6.9 -7.62,6.77 -13.6,-0.01 -27.22,0.13 -40.82,-0.06 -4.92,-0.27 -8.03,-5.53 -6.71,-10.1 7.73,-42.57 15.46,-85.15 23.27,-127.71 0.49,-3.98 4.31,-6.72 8.21,-6.51 34.03,0.01 68.06,-0.02 102.08,0.01 4.44,-0.21 7.55,3.8 7.97,7.91 1.85,-3.61 4.29,-8.1 9.02,-7.89 15,-0.1 30,0 45.01,-0.03 3.86,-0.12 7.45,2.95 7.91,6.79 5.08,24.48 9.91,49.01 15.06,73.48 4.99,-24.74 9.46,-49.58 14.38,-74.33 0.74,-3.45 4.1,-6.07 7.63,-5.93 13.67,0 27.34,-0.08 41.01,0.06 4.71,-0.18 8.44,4.51 7.44,9.06 -1.57,8.68 -3.39,17.31 -4.97,25.98 10.93,-10.7 22.49,-20.73 33.56,-31.28 1.94,-1.81 4.1,-3.9 6.96,-3.82 48.5,-0.02 97,0 145.5,-0.01 m 27.88,-15.79 c -13.17,2.92 -22.93,14.69 -25.04,27.76 -5.16,37.58 -10.44,75.15 -15.54,112.74 -1.06,7.23 -3.04,15.41 1.23,22.03 4.08,6.18 12.19,7.13 18.98,7.31 136.67,0 273.34,-0.04 410.01,0.02 7,-0.14 15.03,0.24 20.71,-4.58 5.43,-4.3 5.41,-11.82 4.69,-18.08 -5.7,-40.14 -11,-80.33 -16.75,-120.45 -2.56,-15.08 -16.11,-27.65 -31.66,-27.59 -117.33,-0.04 -234.66,0.01 -352,-0.02 -4.88,0.06 -9.86,-0.45 -14.63,0.86 m -467.01,23.7 c -7.94,42.84 -15.69,85.72 -23.47,128.6 13.37,0.04 26.74,0.05 40.1,0 3.19,-16.76 6.02,-33.59 9.38,-50.31 16.6,-0.02 33.2,-0.09 49.8,0.03 -9.54,16.81 -19.29,33.5 -28.81,50.32 13.71,-0.04 27.43,0.01 41.14,-0.02 3.26,-7.26 7,-14.3 10.43,-21.48 16.08,0 32.16,0.04 48.24,0 1.04,7.12 1.65,14.31 2.86,21.41 25.37,0.12 50.75,0.16 76.12,-0.02 2.14,-10.67 3.53,-21.58 6.45,-32.05 8.17,-7.32 16.95,-14.01 25.47,-20.95 6.21,17.67 12.23,35.41 18.36,53.11 47.59,-0.04 95.18,0.03 142.77,-0.03 0.65,-9.86 2.77,-19.56 3.65,-29.39 -19.2,0 -38.39,0 -57.58,-0.02 1.74,-8.54 3.13,-17.15 5.19,-25.61 18.68,0.09 37.35,0.01 56.03,0.02 1.27,-8.71 2.48,-17.42 3.51,-26.15 -18.2,-0.02 -36.4,0.01 -54.6,-0.01 1.42,-6.91 2.66,-13.85 4.18,-20.73 17.86,-0.13 35.71,0.03 53.57,-0.09 0.84,-9.01 2.48,-17.92 3.57,-26.9 -46.25,-0.3 -92.51,0.02 -138.76,-0.17 -1.48,0.08 -3.16,-0.15 -4.35,0.92 -17.48,15.67 -34.29,32.12 -51.92,47.63 2.78,-16.19 6.33,-32.23 9.08,-48.42 -13.63,-0.19 -27.27,-0.03 -40.9,-0.1 -7.34,37.28 -13.95,74.71 -21.75,111.9 -7.8,-37.16 -15.2,-74.41 -22.86,-111.6 -15.03,-0.67 -30.09,-0.1 -45.14,-0.29 -13.14,21.87 -25.74,44.08 -39.28,65.69 0.8,-4.95 2.27,-9.75 3.24,-14.65 -17.59,-0.08 -35.17,-0.02 -52.75,0 1.6,-8.03 3.04,-16.09 4.49,-24.14 20.75,-0.07 41.49,0 62.23,-0.03 1.48,-8.96 3.64,-17.81 4.85,-26.82 -34.17,0.15 -68.39,-0.52 -102.54,0.35 z"
       id="path3" />
    <path
       d="m 546.34,423.52 345.65,-0.33 c 4.11,0.13 8.35,-0.54 12.37,0.55 3.66,1.8 4.55,6.17 5.05,9.85 4.81,37.15 10,74.26 14.84,111.41 1.13,6.55 -4.82,12.13 -11.2,11.59 -125.37,0.1 -376.1,0 -376.1,0 -6.42,0.55 -11.98,-5.17 -11.03,-11.6 4.97,-37.33 10.07,-74.66 14.98,-112 0.55,-3.56 1.49,-8.29 5.44,-9.47 m 14.33,23.23 c 0.03,7.86 0.04,15.73 0.01,23.59 9.87,0.08 19.74,-0.04 29.61,0.09 -0.06,22.3 -0.09,44.61 0.02,66.91 9.42,-0.03 18.84,-0.04 28.27,-0.04 0.06,-22.3 0.03,-44.6 0.01,-66.9 9.74,-0.07 19.49,-0.05 29.23,0 -0.01,-7.88 0,-15.76 0.01,-23.64 -29.06,0 -58.11,0.02 -87.16,-0.01 m 114.2,0.02 c -11.43,30.19 -23,60.33 -34.49,90.5 9.62,0.13 19.24,0.02 28.86,0.04 1.65,-4.66 3.27,-9.32 4.78,-14.03 10.96,-0.11 21.93,-0.07 32.89,0 1.63,4.68 3.24,9.37 4.88,14.05 10.08,-0.01 20.16,-0.07 30.24,0.05 -11.66,-30.12 -22.79,-60.54 -35.23,-90.3 -10.61,-0.77 -21.3,-0.1 -31.93,-0.31 m 74.22,-0.06 c 9.11,15.06 18.61,29.87 27.83,44.86 -10.46,15.16 -20.8,30.4 -31.01,45.74 11.13,0.03 22.25,-0.01 33.38,0.02 6.03,-9.69 11.72,-19.57 17.74,-29.26 5.85,9.74 11.44,19.65 17.48,29.29 10.87,-0.13 21.75,0.02 32.62,-0.04 -10.32,-15.52 -20.89,-30.86 -31.27,-46.34 9.67,-14.72 19.43,-29.38 29.03,-44.15 -8.97,-0.16 -17.94,-0.01 -26.91,-0.12 -2.19,0.1 -5.13,-0.37 -6.25,2.04 -4.93,8.19 -9.75,16.44 -14.73,24.6 -5.59,-8.9 -11.38,-17.67 -16.94,-26.58 -10.32,-0.07 -20.65,0.05 -30.97,-0.06 m 106.46,0.03 c -0.03,30.2 -0.04,60.4 0,90.6 9.67,-0.03 19.35,-0.04 29.03,0.01 0.01,-30.16 0.01,-60.32 0,-90.48 -9.68,-0.22 -19.36,-0.04 -29.03,-0.13 z"
       id="path5"
       inkscape:connector-curvature="0"
       style="opacity:1;fill:#231f20"
       sodipodi:nodetypes="ccccccccccccccccccccccccccccccccccccccccccccccc" />
    <path
       style="opacity:1;fill:#231f20"
       inkscape:connector-curvature="0"
       d="m 361.83,477.25 c 16.75,-13.92 33.23,-28.16 50,-42.05 -6.29,36.42 -12.78,72.81 -19.29,109.19 -10.49,-22.26 -20.53,-44.73 -30.71,-67.14 z"
       id="path7" />
    <path
       style="opacity:1;fill:#231f20"
       inkscape:connector-curvature="0"
       d="m 183.19,508.43 c 7.61,-15.19 15.25,-30.38 22.96,-45.52 2.69,15.13 5.4,30.28 7.55,45.51 -10.17,-0.02 -20.34,0 -30.51,0.01 z"
       id="path9" />
    <path
       style="opacity:1;fill:#231f20"
       inkscape:connector-curvature="0"
       d="m 680.94,502.68 c 3.45,-9.86 6.46,-19.87 10.32,-29.57 3.44,9.75 6.05,19.78 9.24,29.62 -6.52,0.02 -13.04,0.03 -19.56,-0.05 z"
       id="path11" />
  </g>
  <g
     transform="matrix(0.107747,0,0,0.107747,-3.7635321,-42.249201)"
     id="#fdd405ff">
    <path
       d="m 538.37,405.44 c 4.77,-1.31 9.75,-0.8 14.63,-0.86 117.34,0.03 234.67,-0.02 352,0.02 15.55,-0.06 29.1,12.51 31.66,27.59 5.75,40.12 11.05,80.31 16.75,120.45 0.72,6.26 0.74,13.78 -4.69,18.08 -5.68,4.82 -13.71,4.44 -20.71,4.58 -136.67,-0.06 -273.34,-0.02 -410.01,-0.02 -6.79,-0.18 -14.9,-1.13 -18.98,-7.31 -4.27,-6.62 -2.29,-14.8 -1.23,-22.03 5.1,-37.59 10.38,-75.16 15.54,-112.74 2.11,-13.07 11.87,-24.84 25.04,-27.76 m 7.97,18.08 c -3.95,1.18 -4.89,5.91 -5.44,9.47 -4.91,37.34 -10.01,74.67 -14.98,112 -0.95,6.43 4.61,12.15 11.03,11.6 h 376.1 c 6.38,0.54 12.33,-5.04 11.2,-11.59 -4.84,-37.15 -10.03,-74.26 -14.84,-111.41 -0.5,-3.68 -1.39,-8.05 -5.05,-9.85 -4.02,-1.09 -8.26,-0.42 -12.37,-0.55 -110.66,0.02 -221.32,0.01 -331.99,0 -4.55,0.11 -9.14,-0.38 -13.66,0.33 z"
       id="path14"
       inkscape:connector-curvature="0"
       style="opacity:1;fill:#fdd405"
       sodipodi:nodetypes="ccccccccccccccccccccccc" />
    <path
       inkscape:connector-curvature="0"
       style="opacity:1;fill:#fdd405;stroke-width:1.33333325"
       d="m 146.40234,571.58203 c -17.09281,0.0234 -34.18086,0.17047 -51.255856,0.60547 -10.586666,57.12 -20.919635,114.29151 -31.292968,171.46484 17.826666,0.0533 35.653464,0.0667 53.466794,0 4.25334,-22.34666 8.02586,-44.78479 12.50586,-67.07812 22.13333,-0.0267 44.26706,-0.12094 66.40039,0.0391 -12.72,22.41333 -25.72073,44.66709 -38.41406,67.09375 18.28,-0.0533 36.57352,0.0127 54.85352,-0.0273 4.34666,-9.68 9.33487,-19.06729 13.9082,-28.64063 21.44,0 42.87836,0.0533 64.31836,0 1.38666,9.49334 2.20112,19.08021 3.81445,28.54688 33.82667,0.16 67.66552,0.21461 101.49219,-0.0254 2.85333,-14.22667 4.70823,-28.77438 8.60156,-42.73438 10.89333,-9.76 22.59899,-18.68026 33.95899,-27.93359 8.28,23.56 16.30713,47.21445 24.48046,70.81445 63.45334,-0.0533 126.90605,0.039 190.35938,-0.041 0.86667,-13.14667 3.69385,-26.07888 4.86719,-39.18555 -25.6,0 -51.18677,-6.8e-4 -76.77344,-0.0273 2.32,-11.38666 4.17325,-22.86648 6.91992,-34.14648 24.90667,0.12 49.80037,0.014 74.70703,0.0273 1.69334,-11.61333 3.30636,-23.22718 4.67969,-34.86718 -24.26667,-0.0267 -48.53412,0.013 -72.80078,-0.0137 1.89333,-9.21333 3.54755,-18.46729 5.57422,-27.64062 23.81333,-0.17333 47.61245,0.0409 71.42578,-0.11914 1.12,-12.01333 3.30838,-23.89386 4.76172,-35.86719 -61.66667,-0.4 -123.34701,0.0268 -185.01367,-0.22656 -1.97334,0.10667 -4.21412,-0.2001 -5.80079,1.22656 -23.30666,20.89333 -45.71989,42.82782 -69.22656,63.50781 3.70667,-21.58666 8.44076,-42.97388 12.10742,-64.56054 -18.17333,-0.25334 -36.35987,-0.0395 -54.5332,-0.13282 -9.78667,49.70667 -18.6,99.61256 -29,149.19922 -10.4,-49.54666 -20.26714,-99.21411 -30.48047,-148.80078 -20.04,-0.89333 -40.12083,-0.13338 -60.1875,-0.38672 -17.52,29.16 -34.31971,58.77456 -52.37305,87.58789 1.06667,-6.6 3.02698,-12.99987 4.32032,-19.5332 -23.45334,-0.10667 -46.89399,-0.0267 -70.33399,0 2.13334,-10.70667 4.053,-21.45417 5.98633,-32.1875 27.66667,-0.0933 55.32128,9.4e-4 82.97461,-0.0391 1.97333,-11.94667 4.85346,-23.74643 6.4668,-35.75977 -28.475,0.125 -56.97683,-0.17773 -85.46485,-0.13867 z m 402.70508,8.68555 c -8.38666,48.56 -17.0407,97.07927 -25.7207,145.58594 -13.98667,-29.68 -27.37393,-59.63954 -40.94727,-89.51954 22.33334,-18.56 44.30797,-37.5464 66.66797,-56.0664 z m 449.67969,15.3457 37.10549,59.8125 -41.34572,60.98828 44.50582,0.0254 23.6543,-39.01367 23.3067,39.05469 43.4922,-0.0547 -41.6934,-61.78516 c 12.8933,-19.62665 25.907,-39.17385 38.707,-58.86718 -11.96,-0.21334 -23.9189,-0.0135 -35.8789,-0.16016 -2.92,0.13333 -6.8406,-0.49263 -8.334,2.7207 l -19.6406,32.79883 -22.5859,-35.43945 z m 156.45899,0.0176 c -8.0633,-0.007 -14.5137,0.0215 -14.5137,0.0215 v 120.80078 l 38.7071,0.0137 V 595.82617 c -6.4534,-0.14666 -16.1301,-0.18864 -24.1934,-0.19531 z m -407.68555,0.0352 0.0137,31.45312 39.47851,0.12109 0.0273,89.21289 37.69336,-0.0527 0.0137,-89.20117 c 12.98667,-0.0933 38.97266,0 38.97266,0 l 0.0137,-31.51953 z m 152.26562,0.0273 -45.98633,120.66602 38.48047,0.0547 6.37305,-18.70703 h 43.85352 c 0,0 4.31919,12.49242 6.50585,18.73242 13.44,-0.0133 40.32032,0.0664 40.32032,0.0664 L 942.40039,596.10742 Z m -624.95898,21.51953 c 3.58666,20.17333 7.19974,40.37302 10.0664,60.67969 -13.56,-0.0267 -27.11968,3.4e-4 -40.67968,0.0137 10.14666,-20.25333 20.33328,-40.50669 30.61328,-60.69336 z M 921.67969,630.8125 934,670.30664 l -26.08008,-0.0664 z"
       id="path16"
       transform="scale(0.75000002)" />
  </g>
</svg>
