<?xml version="1.0" encoding="UTF-8" standalone="no"?>
<svg
   xmlns:dc="http://purl.org/dc/elements/1.1/"
   xmlns:cc="http://creativecommons.org/ns#"
   xmlns:rdf="http://www.w3.org/1999/02/22-rdf-syntax-ns#"
   xmlns:svg="http://www.w3.org/2000/svg"
   xmlns="http://www.w3.org/2000/svg"
   xmlns:sodipodi="http://sodipodi.sourceforge.net/DTD/sodipodi-0.dtd"
   xmlns:inkscape="http://www.inkscape.org/namespaces/inkscape"
   version="1.1"
   id="svg867"
   width="1031.514"
   height="178.40111"
   viewBox="0 0 1031.514 178.40111"
   sodipodi:docname="mayfair_logo.svg"
   inkscape:version="1.0.1 (c497b03c, 2020-09-10)">
  <metadata
     id="metadata873">
    <rdf:RDF>
      <cc:Work
         rdf:about="">
        <dc:format>image/svg+xml</dc:format>
        <dc:type
           rdf:resource="http://purl.org/dc/dcmitype/StillImage" />
        <dc:title></dc:title>
      </cc:Work>
    </rdf:RDF>
  </metadata>
  <defs
     id="defs871" />
  <sodipodi:namedview
     pagecolor="#ffffff"
     bordercolor="#666666"
     borderopacity="1"
     objecttolerance="10"
     gridtolerance="10"
     guidetolerance="10"
     inkscape:pageopacity="0"
     inkscape:pageshadow="2"
     inkscape:window-width="1416"
     inkscape:window-height="847"
     id="namedview869"
     showgrid="false"
     fit-margin-top="0"
     fit-margin-left="0"
     fit-margin-right="0"
     fit-margin-bottom="0"
     inkscape:zoom="0.57841484"
     inkscape:cx="482.72234"
     inkscape:cy="69.593713"
     inkscape:window-x="95"
     inkscape:window-y="84"
     inkscape:window-maximized="0"
     inkscape:current-layer="g875" />
  <g
     inkscape:groupmode="layer"
     inkscape:label="Image"
     id="g875"
     transform="translate(-110.27766,-69.906287)">
    <path
       style="fill:#000000;stroke-width:0.923637"
       d="m 1107.2757,247.97891 -28.6269,-0.12478 -2.5729,-6.16069 c -5.5391,-13.26338 -12.1388,-30.08928 -12.4377,-31.71014 -0.1729,-0.93764 -0.4089,-1.80038 -0.524,-1.91716 -0.1153,-0.11679 -0.3066,-0.49984 -0.4251,-0.85123 -0.1184,-0.35139 -0.5065,-1.21343 -0.8626,-1.91566 -0.3559,-0.70222 -3.8342,-9.09464 -7.7294,-18.64979 -3.8952,-9.55518 -7.5566,-17.77354 -8.1364,-18.26303 -0.7354,-0.62089 -1.0025,7.35103 -0.8832,26.36634 0.157,25.59277 0.2921,27.42363 2.1535,29.99772 2.4255,3.35394 7.6951,5.31999 14.1817,5.291 l 4.8779,-0.0218 0.054,9.01749 0.056,9.0175 -36.7522,-0.28219 c -20.2138,-0.1552 -40.23989,-0.28471 -44.50246,-0.2878 l -7.75014,-0.006 -0.0522,-8.53093 -0.0523,-8.53094 2.95076,-0.0132 c 1.6229,-0.007 5.22691,-0.44027 8.00892,-0.96227 7.78234,-1.46025 10.08447,-4.61078 11.07496,-15.15642 0.95686,-10.18773 0.70736,-110.35926 -0.28524,-114.492153 -1.3474,-5.610349 -6.78321,-9.347434 -13.5808,-9.336684 -7.00248,0.01107 -7.14052,-0.194956 -6.87743,-10.263389 l 0.2323,-8.888994 49.49983,-0.148851 c 34.4121,-0.103467 51.6353,0.16204 56.506,0.871098 13.9789,2.034936 30.3523,11.038681 35.5461,19.546795 5.4741,8.967288 6.6207,13.509608 6.6675,26.416838 0.039,10.72875 -0.2455,13.0057 -2.1431,17.16124 -3.8824,8.50162 -8.0581,14.24959 -13.4193,18.47237 -5.0362,3.96672 -16.9036,9.72662 -20.0695,9.74075 -2.0314,0.009 -1.9309,0.77447 0.9232,7.02511 7.7973,17.07707 11.4175,25.06829 15.3278,33.83531 2.4058,5.39435 5.1402,11.3401 6.0762,13.21277 4.1526,8.30905 9.6312,11.48867 21.0594,12.22202 l 7.0028,0.44937 -0.01,8.29674 c 7e-4,4.56321 -0.2061,8.46792 -0.4486,8.67712 -1.0004,0.86244 -6.7918,1.01478 -34.0601,0.896 z m -44.9674,-96.52724 c 5.0574,-1.21628 10.3784,-5.9948 12.8304,-11.52241 2.2805,-5.14129 3.0279,-20.92534 1.4068,-29.70669 -1.4316,-7.75321 -5.3572,-14.38324 -10.0759,-17.017037 -3.0347,-1.693786 -5.2316,-2.115069 -12.1206,-2.324117 l -8.4143,-0.255333 -0.1471,11.091177 c -0.081,6.10015 -0.2856,19.80319 -0.4549,30.45121 -0.169,10.64801 -0.055,19.57323 0.2537,19.83383 0.9817,0.8287 12.5737,0.44698 16.7219,-0.55063 z m -238.66373,96.0568 -20.25114,-0.1405 -0.0542,-8.84356 -0.0542,-8.84355 6.94914,-0.36612 c 5.64086,-0.2972 7.42975,-0.75539 9.50201,-2.43369 4.68182,-3.79182 5.02253,-6.9997 2.04457,-19.25048 -1.46259,-6.01678 -3.11249,-11.32225 -3.66646,-11.78991 -0.5975,-0.50443 -10.94522,-0.92777 -25.43743,-1.04072 l -24.43023,-0.19038 -1.00401,2.80585 c -2.66635,7.45154 -5.2776,18.53867 -5.17564,21.97528 0.20405,6.87627 4.95333,10.22624 14.46715,10.20456 l 5.75001,-0.0132 0.0544,8.85036 0.0544,8.85035 -34.49881,0.27197 -34.49878,0.27196 -0.0544,-8.85041 -0.0544,-8.8504 6.61452,-0.608 c 3.63798,-0.3344 8.33729,-1.36752 10.44293,-2.29582 6.82587,-3.00929 8.06419,-5.78862 19.59993,-43.99042 2.27008,-7.51757 6.02639,-19.43532 8.34737,-26.48389 2.321,-7.0486 6.08954,-18.9664 8.37457,-26.48405 2.28502,-7.51763 4.95041,-16.16734 5.92307,-19.22158 5.1227,-16.085794 2.55382,-20.967218 -11.60963,-22.060701 l -6.06133,-0.467963 -0.25036,-8.753422 -0.25036,-8.753421 38.1265,0.0531 38.12647,0.0531 4.89014,16.187376 c 2.68956,8.903056 6.76521,22.705351 9.05699,30.671751 2.29179,7.96641 8.73561,30.20398 14.31964,49.41682 5.584,19.21285 11.26578,39.05519 12.62615,44.09409 3.82661,14.17397 7.02793,17.90355 16.16169,18.82862 8.3665,0.84733 14.53836,-2.39654 16.3329,-8.58442 0.56565,-1.95045 1.10056,-28.47251 1.27659,-63.29492 0.29853,-59.050917 0.27301,-59.978541 -1.72292,-62.696383 -3.07567,-4.188161 -7.45963,-5.936919 -15.95363,-6.363866 l -7.41394,-0.372667 0.2882,-8.346076 c 0.15851,-4.59034 0.53138,-8.554905 0.82858,-8.810136 0.44906,-0.38561 47.79187,-0.916987 83.70216,-0.939475 l 9.25009,-0.0058 -0.019,8.317974 c -0.0104,4.574886 -0.32155,8.89518 -0.69109,9.600652 -0.44582,0.851168 -2.30942,1.339182 -5.53957,1.450635 -9.36373,0.323083 -13.93939,2.643738 -15.4978,7.860088 -0.51886,1.736712 -1.10789,17.746694 -1.30894,35.577734 -0.20103,17.83105 -0.55714,44.18892 -0.79132,58.57304 -0.40507,24.8796 -0.32747,26.33995 1.59371,29.9933 2.53655,4.82349 5.40821,6.4164 13.67746,7.5868 l 6.55808,0.92822 0.0518,8.43083 0.0519,8.43083 -64.25087,5.4e-4 c -35.338,2.8e-4 -73.3639,-0.0626 -84.50203,-0.13998 z m -10.23894,-73.30465 c -0.35703,-1.75796 -1.04125,-4.34625 -1.52049,-5.75174 -0.47923,-1.4055 -2.29284,-8.38722 -4.03023,-15.51491 -3.56945,-14.64375 -12.12892,-45.53162 -12.76668,-46.07003 -0.46232,-0.39029 -3.83322,8.76186 -4.96531,13.48104 -0.39437,1.64403 -2.47126,8.56354 -4.61527,15.37673 -5.00306,15.89861 -11.56084,38.93844 -11.55075,40.582 0.007,1.08533 2.95317,1.25912 20.05285,1.18275 l 20.04503,-0.0896 z m -240.01053,73.9483 c -0.27645,-0.23451 -18.27857,-0.54022 -40.00471,-0.67939 -21.72616,-0.13918 -39.6148,-0.28405 -39.75254,-0.32195 -0.13773,-0.0378 -0.27398,-3.90786 -0.30278,-8.59987 l -0.0522,-8.53093 2.55715,-0.0113 c 8.71679,-0.0389 16.49454,-4.35719 18.35543,-10.19107 1.25531,-3.93534 1.09712,-41.18028 -0.18608,-43.80958 -0.52487,-1.07547 -3.5254,-7.5105 -6.66788,-14.30007 -3.14247,-6.78957 -6.29339,-13.49379 -7.00202,-14.89826 -0.70866,-1.40449 -5.53003,-11.55636 -10.71417,-22.55974 -10.67968,-22.6677 -13.95604,-28.566935 -17.34699,-31.233841 -3.21534,-2.528788 -9.04549,-4.479177 -13.33203,-4.46003 l -3.53208,0.01578 -0.0572,-9.332792 -0.0572,-9.33279 35.75199,0.24605 c 19.6636,0.135319 39.72241,0.214614 44.57513,0.176206 l 8.82314,-0.06987 -0.46885,8.319984 c -0.25785,4.57599 -0.49046,8.721497 -0.5169,9.212233 -0.0264,0.490729 -1.735,0.988844 -3.7968,1.10692 -5.55746,0.318263 -10.04087,1.798569 -11.7233,3.870747 -3.22491,3.971963 -2.15112,7.532443 12.32411,40.864623 3.81606,8.78724 7.39626,15.84431 7.95598,15.68237 1.87115,-0.54141 20.5618,-40.23996 22.31351,-47.39346 1.00152,-4.089945 0.90027,-4.751692 -1.15628,-7.557492 -2.58858,-3.53167 -7.1226,-5.416905 -12.96503,-5.390807 l -4.0659,0.01815 0.22754,-9.172023 0.22754,-9.172023 94.50067,-0.102819 c 51.97536,-0.05655 94.79252,0.136108 95.14926,0.428096 0.35672,0.292006 0.93434,4.368664 1.28358,9.059247 0.34924,4.690582 1.36441,17.354832 2.25594,28.142781 0.89152,10.78794 1.63474,20.28622 1.6516,21.10726 0.0266,1.32343 -1.10399,1.49789 -9.96921,1.53749 -5.49993,0.0246 -10.00106,-0.1498 -10.00251,-0.38749 -0.0156,-2.56743 -3.38324,-17.89325 -4.49994,-20.47977 -3.74902,-8.68346 -5.85989,-11.509554 -11.01528,-14.747547 -7.29962,-4.584727 -13.75115,-6.134993 -25.99364,-6.246128 l -10.20893,-0.09268 -0.74267,5.122017 c -0.40849,2.81711 -0.5596,16.254378 -0.33579,29.860588 l 0.40692,24.73858 5.1701,-0.0556 c 2.84356,-0.0304 6.27043,-0.56457 7.61529,-1.18633 3.74247,-1.73026 6.33771,-6.67325 6.97641,-13.28764 0.31725,-3.28521 1.13382,-6.24084 1.83749,-6.65079 0.69657,-0.40582 2.84272,-0.54325 4.76918,-0.30539 1.9265,0.23784 5.8657,0.42613 8.75379,0.41838 l 5.25107,-0.014 0.13297,27.93898 c 0.0731,15.36644 -0.11125,29.15772 -0.40959,30.64727 -0.53823,2.68644 -0.59626,2.71077 -7.19421,3.01803 -3.65834,0.17038 -8.05161,0.19975 -9.76278,0.0654 l -3.1112,-0.24452 -0.60286,-6.35756 c -0.96237,-10.149 -6.47161,-15.69175 -15.56312,-15.65795 l -4.24996,0.0156 0.01,17.70215 c 0.005,9.73617 -0.13445,19.43032 -0.31067,21.54258 -0.17626,2.11224 -0.048,6.52411 0.28497,9.8041 0.55068,5.4243 0.93535,6.24218 4.25324,9.0432 2.99986,2.53254 4.62442,3.17658 9.14642,3.62591 3.02424,0.30051 7.1874,0.74854 9.25145,0.99561 l 3.7528,0.44921 0.0515,8.37937 0.0515,8.37937 -8.50839,0.64291 c -4.6796,0.35361 -25.4916,0.48277 -46.24887,0.28704 -20.75727,-0.19574 -38.97799,-0.3521 -40.49048,-0.34746 l -2.75,0.009 -0.0543,-8.8453 -0.0543,-8.8453 7.37352,-0.43677 c 5.29549,-0.31368 8.39832,-0.98343 11.00983,-2.37651 7.32036,-3.905 6.9402,-0.48773 7.51703,-67.57406 0.51143,-59.479554 0.49213,-60.287855 -1.5316,-64.1362 -1.52152,-2.893314 -3.09433,-4.346304 -6.1047,-5.639576 -10.76942,-4.626617 -22.17835,0.713208 -27.63555,12.934516 -0.92792,2.07803 -2.06719,4.14465 -2.53175,4.59247 -0.46455,0.44783 -0.84157,1.31103 -0.83786,1.91822 0.004,0.60718 -2.47335,6.39598 -5.50465,12.864 -3.03129,6.46801 -5.9528,12.72175 -6.49224,13.89718 -0.53944,1.17545 -2.05975,3.96574 -3.37846,6.20063 -1.31871,2.23492 -2.39535,4.43662 -2.39255,4.8927 0.002,0.45605 -2.86185,7.11207 -6.36589,14.79115 l -6.37098,13.962 -0.14548,22.13474 c -0.13009,19.79126 0.0424,22.42662 1.63018,24.89143 2.72492,4.23026 5.86809,5.49064 15.04132,6.03144 l 8.21614,0.48437 0.34011,9.16948 c 0.33565,9.04903 0.31011,9.16973 -1.94363,9.18908 -1.25605,0.0108 -3.85735,0.2481 -5.78067,0.52738 -1.9233,0.27929 -3.7231,0.31596 -3.99955,0.0814 z m -453.75668,-0.0726 -9.25136,-0.20397 -0.0547,-8.92547 -0.0547,-8.92546 5.18422,-0.0232 c 5.97227,-0.0267 12.391,-2.41839 15.0694,-5.61509 2.99434,-3.57376 5.47414,-14.22269 8.52714,-36.61765 1.60776,-11.79361 4.19276,-30.08641 5.74442,-40.65065 6.00071,-40.85466 6.33873,-46.0111 3.33669,-50.9007 -2.90255,-4.727584 -8.38449,-7.08871 -16.37534,-7.053016 l -4.3507,0.01944 -0.0576,-9.38403 -0.0576,-9.384027 10.94083,-0.04886 c 6.23488,-0.02785 11.20964,0.31787 11.56578,0.803767 0.39411,0.537708 1.25954,0.559238 2.34304,0.05829 0.94496,-0.436886 11.9693,-0.831141 24.49856,-0.876135 l 22.78046,-0.0818 0.8837,1.952045 c 0.48605,1.073627 1.63331,5.731383 2.54946,10.35057 1.89583,9.55852 3.62993,17.451896 10.27061,46.750356 0.74371,3.28117 2.63718,12.58237 4.20777,20.66928 1.57058,8.08694 3.19876,14.70198 3.61818,14.70011 0.41943,-8.6e-4 1.00029,-1.06021 1.29082,-2.35184 4.86637,-21.63601 11.33009,-53.07496 13.21077,-64.256061 0.43439,-2.582619 1.48351,-7.76999 2.33134,-11.527491 0.84784,-3.757501 1.88317,-8.75286 2.30075,-11.100797 l 0.75924,-4.268976 34.9744,-0.582785 c 19.23591,-0.320531 36.88677,-0.473306 39.22413,-0.339512 l 4.24972,0.243274 -0.22889,9.123052 -0.2289,9.123051 -5.46273,0.101182 c -9.19451,0.170335 -12.55375,1.068521 -15.75569,4.212679 -2.98636,2.932475 -4.91851,9.636564 -3.75349,13.023684 0.29137,0.8471 0.85222,4.80192 1.24634,8.78848 0.39411,3.98656 0.86043,7.45139 1.03628,7.69963 0.17586,0.2482 0.8439,4.99832 1.48454,10.55578 0.64064,5.55745 1.37673,11.30093 1.63573,12.76325 1.26613,7.14826 4.88388,31.71678 5.72703,38.89278 2.06006,17.53284 4.39232,32.17815 5.7921,36.37102 1.92924,5.77881 6.02033,8.80316 11.81636,8.73527 10.04876,-0.11799 12.84945,-4.15432 20.46316,-29.49369 3.82903,-12.74345 9.6041,-31.53592 19.03344,-61.93598 9.30549,-30.00084 10.78891,-35.99596 9.96234,-40.262265 -1.33492,-6.890291 -4.98063,-9.036692 -15.90094,-9.361603 l -5.75112,-0.171116 -0.0565,-9.200826 -0.0565,-9.200834 37.46095,-0.167334 37.46094,-0.167334 0.98892,3.194771 c 0.54388,1.757124 1.69394,5.686987 2.55566,8.733032 18.72252,66.181619 39.18115,134.362869 41.60034,138.639039 2.88691,5.10288 6.90152,7.62632 13.96761,8.77954 l 6.01859,0.98225 -0.23423,8.20213 -0.23422,8.20215 -46.99935,0.20995 -46.99935,0.20992 -0.33865,-8.74293 -0.33865,-8.74292 7.28486,-0.036 c 8.53731,-0.0415 12.6935,-1.73931 14.74152,-6.02065 1.09024,-2.27911 1.08653,-3.94919 -0.0215,-9.69837 -2.01246,-10.44185 -3.92662,-17.75647 -4.85087,-18.53674 -0.62414,-0.52691 -31.0481,-0.92219 -45.47098,-0.59077 -1.9119,0.044 -2.72125,1.90458 -6.22459,14.31013 -2.86103,10.13102 -2.9842,12.24878 -0.90895,15.62886 2.02949,3.30557 4.27222,4.19459 12.05803,4.77976 l 6.53092,0.49089 -0.23044,8.61943 -0.23044,8.61968 -65.99907,0.29822 c -36.2995,0.16387 -67.00259,0.1621 -68.22909,-0.004 -2.15339,-0.2923 -2.224,-0.59988 -2.05497,-8.95204 l 0.17503,-8.64927 6.49816,-0.31429 c 7.57521,-0.36639 12.15101,-2.38904 13.96006,-6.17079 1.82152,-3.80786 1.66565,-7.20188 -1.7629,-38.38707 -2.02413,-18.41111 -2.29648,-21.09115 -4.27277,-42.04794 -0.9204,-9.76015 -2.05569,-18.58482 -2.52286,-19.61042 -0.80262,-1.76204 -0.88506,-1.72364 -1.4978,0.69755 -0.35663,1.40925 -1.05892,4.0997 -1.56066,5.97879 -0.50172,1.8791 -1.78107,7.64336 -2.84302,12.80946 -5.60386,27.26151 -13.02383,63.41083 -14.6351,71.30064 -5.62722,27.5544 -6.74154,32.71789 -7.13375,33.05602 -0.4752,0.40966 -28.79365,0.51273 -29.27477,0.10654 -0.38832,-0.32783 -5.37525,-22.33492 -10.56046,-46.60265 -4.44853,-20.82006 -7.66064,-35.49548 -12.40524,-56.67687 -1.67996,-7.49992 -3.35737,-15.26645 -3.72756,-17.25896 -0.37019,-1.9925 -1.03798,-3.62112 -1.48398,-3.61913 -0.446,0.002 -1.05653,1.63632 -1.35672,3.63182 -0.56769,3.7736 -0.90758,6.73423 -4.82606,42.03756 -1.30264,11.73618 -2.56771,22.68306 -2.81124,24.32639 -1.62817,10.98699 -2.41706,22.45041 -1.81919,26.43467 0.5735,3.82187 1.32472,5.16584 4.14053,7.40775 3.07218,2.44602 4.1592,2.76253 10.16806,2.96056 l 6.72813,0.22177 0.33865,8.74294 c 0.25619,6.61398 0.026,8.78469 -0.94531,8.91441 -2.08897,0.27901 -48.48482,0.49857 -58.53408,0.277 z M 407.33054,174.5168 c -0.0694,-1.40293 -1.78377,-8.68583 -3.80991,-16.1842 -2.02617,-7.49839 -4.65996,-17.46808 -5.85291,-22.1549 -4.07743,-16.01942 -6.35268,-23.43234 -7.19093,-23.4286 -0.46097,0.002 -1.32647,1.63751 -1.92334,3.63434 -0.59684,1.99683 -2.57141,8.43602 -4.3879,14.30931 -12.58461,40.69011 -13.82834,45.28095 -12.45952,45.99035 0.58937,0.30547 8.87434,0.51693 18.41104,0.46995 l 17.33946,-0.0851 -0.12595,-2.55081 z"
       id="path879" />
  </g>
</svg>
