<?xml version="1.0" encoding="UTF-8" standalone="no"?>
<svg
   xmlns:dc="http://purl.org/dc/elements/1.1/"
   xmlns:cc="http://creativecommons.org/ns#"
   xmlns:rdf="http://www.w3.org/1999/02/22-rdf-syntax-ns#"
   xmlns:svg="http://www.w3.org/2000/svg"
   xmlns="http://www.w3.org/2000/svg"
   xmlns:sodipodi="http://sodipodi.sourceforge.net/DTD/sodipodi-0.dtd"
   xmlns:inkscape="http://www.inkscape.org/namespaces/inkscape"
   width="3000"
   height="480.93884"
   viewBox="0 0 3000 480.93884"
   version="1.1"
   id="svg4209"
   inkscape:version="0.91 r13725"
   sodipodi:docname="play2.svg">
  <metadata
     id="metadata4231">
    <rdf:RDF>
      <cc:Work
         rdf:about="">
        <dc:format>image/svg+xml</dc:format>
        <dc:type
           rdf:resource="http://purl.org/dc/dcmitype/StillImage" />
        <dc:title>Playboy Logo</dc:title>
      </cc:Work>
    </rdf:RDF>
  </metadata>
  <defs
     id="defs4229" />
  <sodipodi:namedview
     pagecolor="#ffffff"
     bordercolor="#666666"
     borderopacity="1"
     objecttolerance="10"
     gridtolerance="10"
     guidetolerance="10"
     inkscape:pageopacity="0"
     inkscape:pageshadow="2"
     inkscape:window-width="1366"
     inkscape:window-height="715"
     id="namedview4227"
     showgrid="false"
     inkscape:showpageshadow="false"
     fit-margin-top="20"
     fit-margin-right="20"
     fit-margin-bottom="20"
     fit-margin-left="20"
     inkscape:zoom="0.27297298"
     inkscape:cx="1500"
     inkscape:cy="240.46942"
     inkscape:window-x="-8"
     inkscape:window-y="-8"
     inkscape:window-maximized="1"
     inkscape:current-layer="svg4209" />
  <!-- Generator: Sketch 3.2.2 (9983) - http://www.bohemiancoding.com/sketch -->
  <title
     id="title4211">Playboy Logo</title>
  <g
     id="logo"
     transform="matrix(20.997088,0,0,20.997088,19.41055,20)">
    <path
       d="m 88.440483,8.1569678 c 0,0 1.575967,0.030422 2.017724,-0.084385 C 91.41617,7.8230503 91.89705,7.1193608 91.894771,6.312816 91.892872,5.7308144 91.732958,5.192635 90.847925,4.8366253 90.437315,4.6718396 89.899458,4.6823424 89.428453,4.6696666 88.908449,4.6559042 88.426428,4.6566286 88.426428,4.6566286 l 0.01405,3.5003392 0,0 z m -0.01405,8.4239932 c 0,0 1.189288,0.07606 2.015065,-0.128207 1.218156,-0.301685 1.567611,-1.080705 1.583564,-2.0495 0.01405,-0.815962 -0.322486,-1.525808 -1.251961,-1.809022 -0.785894,-0.238668 -2.33983,-0.158991 -2.33983,-0.158991 l -0.0068,4.14572 0,0 z M 80.005698,0.01365399 c 0,0 5.168518,-0.02607599 9.277655,-0.00615683 1.917066,0.04164915 3.172066,0.11770411 4.425167,0.37701533 2.687386,0.55628775 4.75335,2.40225041 4.714606,4.74908931 -0.0433,2.6503345 -1.869965,4.8939562 -5.046209,5.0931472 3.506707,0.08294 5.686624,2.621724 5.621671,5.351373 -0.07103,2.955641 -2.546465,5.249241 -5.783104,5.357167 -3.172066,0.10539 -13.183577,0.05034 -13.183577,0.05034 l -0.01102,-4.413361 1.861229,7.24e-4 L 81.88174,4.7243537 80,4.7236294 l 0.0057,-4.70997541 0,0 z"
       id="path4214"
       inkscape:connector-curvature="0" />
    <path
       d="m 110.14924,16.748711 c 2.00361,0.01188 2.58075,-2.445895 2.58075,-6.133612 0,-3.6877174 -0.54902,-6.4736896 -2.72639,-6.4736896 -1.93547,0 -2.72602,2.7859722 -2.72602,6.4736896 0,3.687717 0.85941,6.121729 2.87166,6.133612 M 100,10.499759 C 100,4.7009805 103.94232,-0.01220921 110,2.3759049e-5 116.3385,0.01260625 120,4.7009805 120,10.499759 c 0,5.799128 -3.94232,10.46793 -10,10.500085 -5.89582,0.03146 -10,-4.700957 -10,-10.500085"
       id="path4216"
       inkscape:connector-curvature="0" />
    <path
       d="m 2.0036423,4.7420211 -0.013198,11.8953309 -1.92994163,-0.01159 0,4.374237 11.31493333,0 0,-4.340193 -2.2674364,0 -0.022248,-3.007424 c 0,0 3.1377574,0.07968 4.0642654,-0.03658 4.395727,-0.551216 5.852421,-3.8436639 5.877686,-6.788433 C 19.056362,3.5946803 17.420927,0.99759031 13.049711,0.25587503 11.783823,0.04111079 9.9636145,0.00670505 7.8643599,0.00163473 4.1266535,-0.00741941 0.02807292,0.02408901 0.02807292,0.02408901 l 0.0015083,4.71720779 1.97406108,7.243e-4 0,0 z m 7.1047343,-0.010141 c 0,0 1.4845994,-0.1108227 2.1690164,0.1014064 0.755686,0.233959 0.957429,0.9148304 0.957429,2.1958104 0,1.2813421 -0.814135,2.0288521 -1.41069,2.118307 -0.713076,0.107201 -1.7165095,0.038752 -1.7165095,0.038752 l 7.541e-4,-4.4542755 0,0 z"
       id="path4218"
       inkscape:connector-curvature="0" />
    <path
       d="M 20.003682,4.7060223 20.000368,0 l 10.930465,0 3.69e-4,4.7125414 -2.199203,0 -0.01031,11.8592196 3.203795,0 -0.0015,-3.601769 L 37,12.965646 36.991162,21 20,21 l 0.0015,-4.426428 1.925223,0.0051 -0.0048,-11.8816739 -1.918227,0.00905"
       id="Fill-4"
       inkscape:connector-curvature="0" />
    <path
       d="m 46.629493,10.333948 2.967564,-0.0062 -1.149348,-6.0448568 -1.818216,6.0510128 0,0 z M 45.690542,0 52.607148,0 57.523119,16.545037 59,16.545037 59,21 l -9.925951,-0.02282 -0.0022,-4.454963 1.902897,0.02282 -0.331636,-1.851737 -5.020798,0 -0.676328,1.851737 2.191633,0 0.0034,4.432147 -8.137952,0 L 39,16.540329 40.555966,16.551919 45.690542,0 l 0,0 z"
       id="path4221"
       inkscape:connector-curvature="0" />
    <path
       d="M 58,4.7117288 58,0 l 10.811601,0 -0.0094,4.7117288 -1.658048,0 2.322766,3.7315067 2.173262,-3.715574 -1.460582,-0.00145 L 70.179631,0 78,0 l -0.0034,4.7117288 -1.335432,0 -5.084682,8.0981482 -3.75e-4,3.753957 2.602668,0 0,4.436166 -11.646058,0 3.75e-4,-4.444494 1.940197,0.0047 0.003,-4.037487 -5.239059,-7.8109972 -1.23726,0"
       id="path4223"
       inkscape:connector-curvature="0" />
    <path
       d="M 121,4.7116568 121,0 l 10.82884,0 3.7e-4,4.7116568 -1.53777,-0.018093 2.15453,3.5616956 2.16089,-3.5551823 -1.41224,0.016283 L 133.19462,0 141,0 l 0,4.7116568 -1.45684,-0.018093 -4.85086,7.6578452 0.001,4.212303 2.23434,0 0,4.436288 -11.36878,0 3.7e-4,-4.440993 1.93758,0.0018 -0.009,-3.950323 -5.21957,-7.8988376 -1.26874,0"
       id="path4225"
       inkscape:connector-curvature="0" />
  </g>
</svg>
