<?xml version="1.0" encoding="UTF-8" standalone="no"?>
<svg
   xmlns:dc="http://purl.org/dc/elements/1.1/"
   xmlns:cc="http://creativecommons.org/ns#"
   xmlns:rdf="http://www.w3.org/1999/02/22-rdf-syntax-ns#"
   xmlns:svg="http://www.w3.org/2000/svg"
   xmlns="http://www.w3.org/2000/svg"
   xmlns:sodipodi="http://sodipodi.sourceforge.net/DTD/sodipodi-0.dtd"
   xmlns:inkscape="http://www.inkscape.org/namespaces/inkscape"
   width="100"
   height="18"
   viewBox="0 0 75 13.499999"
   version="1.1"
   id="svg20"
   sodipodi:docname="Burning Angel logo.svg"
   inkscape:version="1.0.1 (3bc2e813f5, 2020-09-07)">
  <title
     id="title26">Pure Taboo logo</title>
  <metadata
     id="metadata26">
    <rdf:RDF>
      <cc:Work
         rdf:about="">
        <dc:format>image/svg+xml</dc:format>
        <dc:type
           rdf:resource="http://purl.org/dc/dcmitype/StillImage" />
        <dc:title>Pure Taboo logo</dc:title>
        <cc:license
           rdf:resource="http://scripts.sil.org/OFL" />
        <dc:date>28 ene 2021</dc:date>
      </cc:Work>
      <cc:License
         rdf:about="http://scripts.sil.org/OFL">
        <cc:permits
           rdf:resource="http://scripts.sil.org/pub/OFL/Reproduction" />
        <cc:permits
           rdf:resource="http://scripts.sil.org/pub/OFL/Distribution" />
        <cc:permits
           rdf:resource="http://scripts.sil.org/pub/OFL/Embedding" />
        <cc:permits
           rdf:resource="http://scripts.sil.org/pub/OFL/DerivativeWorks" />
        <cc:requires
           rdf:resource="http://scripts.sil.org/pub/OFL/Notice" />
        <cc:requires
           rdf:resource="http://scripts.sil.org/pub/OFL/Attribution" />
        <cc:requires
           rdf:resource="http://scripts.sil.org/pub/OFL/ShareAlike" />
        <cc:requires
           rdf:resource="http://scripts.sil.org/pub/OFL/DerivativeRenaming" />
        <cc:requires
           rdf:resource="http://scripts.sil.org/pub/OFL/BundlingWhenSelling" />
      </cc:License>
    </rdf:RDF>
  </metadata>
  <defs
     id="defs24" />
  <sodipodi:namedview
     pagecolor="#ffffff"
     bordercolor="#666666"
     borderopacity="1"
     objecttolerance="1"
     gridtolerance="1"
     guidetolerance="1"
     inkscape:pageopacity="0"
     inkscape:pageshadow="2"
     inkscape:window-width="1366"
     inkscape:window-height="745"
     id="namedview22"
     showgrid="false"
     units="px"
     showborder="true"
     inkscape:showpageshadow="false"
     inkscape:zoom="1"
     inkscape:cx="86.734615"
     inkscape:cy="14.666495"
     inkscape:window-x="-8"
     inkscape:window-y="-8"
     inkscape:window-maximized="1"
     inkscape:current-layer="svg20"
     inkscape:document-rotation="0" />
  <g
     id="#ffffffff" />
  <path
     id="path8"
     style="fill:#000000;stroke-width:0.106531"
     d="m 71.658118,0.27826495 c -0.08523,0.0532657 -0.191674,-0.0108187 -0.28755,0.042446 -0.01065,0.0106531 -0.03196,0.0214719 -0.05326,0.0108187 -0.05327,0.0426126 -0.117144,0.0104865 -0.170408,0.042446 -0.01065,0.0106532 -0.032,0.0214719 -0.04266,0.0108187 -0.03196,0.0213063 -0.07453,0.0317928 -0.117143,0.042446 -0.0213,0 -0.03196,0.0108187 -0.05326,0.0108187 -0.03196,0.0213063 -0.07474,0.0317928 -0.11735,0.042447 -0.01065,0.0213063 -0.02114,0.0214719 -0.04244,0.0108187 -0.03196,0.0106531 -0.05339,0.0211407 -0.07469,0.042446 -0.01065,0.0213063 -0.02136,0.0214719 -0.04266,0.0108187 -0.0213,0.0106532 -0.04257,0.0317939 -0.06387,0.042446 -0.01065,0.0213063 -0.02135,0.0214305 -0.04266,0.0214305 -0.0213,0.0106532 -0.04258,0.0213487 -0.06387,0.042654 l -0.01061,0.0212235 h -0.02123 c -0.03196,0 -0.06404,0.0213063 -0.07469,0.0532657 -0.0213,0.0106531 -0.03196,0.0319997 -0.05326,0.0426529 l -0.01061,0.0212235 h -0.02123 c -0.03196,0 -0.06404,0.0213063 -0.0747,0.0532657 -0.0213,0.0106532 -0.04258,0.0319594 -0.06387,0.0532657 -0.0213,0.0106532 -0.04261,0.0319594 -0.05326,0.0532657 l -0.05327,0.0532655 c -0.01065,0.021306 -0.03196,0.042613 -0.05326,0.053266 -0.01065,0.021306 -0.03196,0.042613 -0.05327,0.053266 l -0.05327,0.053266 c -0.0213,0.010653 -0.04261,0.03196 -0.05326,0.053266 -0.0213,0.010653 -0.04261,0.031917 -0.05326,0.063876 -0.04261,0.010653 -0.03191,0.074612 -0.06387,0.095919 -0.0213,0.021306 -0.04262,0.042736 -0.05327,0.074695 0.01065,0.021306 -1.06e-4,0.031834 -0.02143,0.031834 -0.01065,0.021306 -0.02115,0.04257 -0.04244,0.063876 -0.03196,0.03196 -0.04261,0.063919 -0.05326,0.1065308 -0.0213,0.03196 -0.04261,0.074738 -0.05326,0.1173501 -0.03196,0.042613 -0.04261,0.085142 -0.05327,0.1277535 0.01065,0.010653 0.01051,0.021389 -0.01083,0.032042 -0.0213,0.042613 -0.03179,0.085141 -0.04244,0.1277538 0.01065,0.010652 0.01051,0.032045 -0.01083,0.032045 -0.04261,0.05327 -0.01051,0.1171424 -0.04244,0.1704078 0.01065,0.021304 0.0105,0.031995 -0.01083,0.042657 -0.04261,0.074576 1.43e-4,0.1597127 -0.04244,0.2342846 0,0.063922 -0.01083,0.1278783 -0.01083,0.2024499 -0.03196,0.5539589 -0.03179,1.1184878 0.01083,1.6724465 0.01065,0.021304 0.03196,0.031995 0.05326,0.042657 0.0213,-0.010652 0.03179,-0.021392 0.04244,-0.032044 0.05326,-0.021304 0.106529,-0.021304 0.159795,0 0.06392,-0.010652 0.127962,1.073e-4 0.181226,0.021431 h 0.01061 c 0.04261,0.010652 0.07452,0.031956 0.117141,0.053261 -0.09588,0.031957 -0.202451,0.031917 -0.308981,0.010613 -0.08523,0 -0.170282,0.010613 -0.255508,0.010613 V 4.5074518 L 69.2506,4.5394958 V 5.604803 c 0,0.021304 0.01075,0.031791 0.03204,0.042443 V 5.626019 c 0.01065,0 0.03179,-4.1e-5 0.04244,0.010613 0.181103,0.021304 0.351551,0.04257 0.532653,0.063874 -0.0213,0.010652 -0.04257,0.010818 -0.06387,0.010818 -0.01065,0 -0.01061,-4.19e-5 -0.02123,0.010613 h -0.02143 C 69.612714,5.743241 69.46357,5.743115 69.325081,5.700506 l -0.02123,0.010818 h -0.02123 V 5.679277 c -0.0213,0.021304 -0.03204,0.053349 -0.03204,0.085305 v 4.708572 c -0.01065,0.09587 -0.01075,0.20249 0.02123,0.298368 0,0.06391 0.01083,0.127713 0.01083,0.191631 0.03196,0.05326 0.01051,0.127961 0.04244,0.181226 0,0.03196 0.01083,0.06376 0.01083,0.09571 0.04261,0.05326 0,0.128002 0.05327,0.170615 l 0.01061,0.01061 -0.01061,0.02123 c 0.01065,0.04261 0.02115,0.08535 0.04244,0.127961 0.0213,0.03196 0.032,0.07458 0.04266,0.10653 0.0213,0.01065 0.02127,0.02115 0.01061,0.04244 0.01065,0.0213 0.02136,0.04278 0.04266,0.06409 0.0213,0.01065 0.02127,0.02115 0.01061,0.04244 0.01065,0.0213 0.032,0.04278 0.04266,0.06409 0.0213,0.01065 0.02127,0.02115 0.01061,0.04244 0.01065,0.0213 0.02135,0.05339 0.04266,0.07469 0.03196,0.0213 0.02126,0.07462 0.06387,0.09592 0.01065,0.0213 0.03199,0.04258 0.04266,0.06387 0.03196,0.0213 0.02127,0.07462 0.06387,0.09592 0,0.03196 0.0213,0.05322 0.05326,0.06387 0.01065,0.0213 0.03196,0.04261 0.05327,0.05326 0.01065,0.0213 0.03196,0.04262 0.05327,0.05327 0.01065,0.0213 0.03196,0.04261 0.05326,0.05326 0.01065,0.0213 0.03196,0.04261 0.05326,0.05326 0.01065,0.0213 0.03196,0.04261 0.05326,0.05326 0.01065,0.03196 0.03211,0.05326 0.06409,0.05326 0.01065,0.04261 0.07442,0.03191 0.09571,0.06387 0.01065,0.02131 0.03211,0.04266 0.06409,0.04266 0.0213,0.04261 0.07442,0.03192 0.09571,0.06387 0.0213,0.0213 0.04273,0.04266 0.07469,0.04266 h 0.02123 l 0.01061,0.02123 c 0.0213,0.0213 0.04273,0.03199 0.07469,0.04266 h 0.02123 l 0.01061,0.01061 c 0.0213,0.0213 0.04273,0.04266 0.0747,0.04266 h 0.02123 l 0.01061,0.01061 c 0.03196,0.03196 0.08539,0.0213 0.11735,0.05326 h 0.02123 l 0.02123,0.01061 c 0.03196,0.0213 0.08539,0.02135 0.117351,0.04266 h 0.02123 l 0.02123,0.01061 c 0.05327,0.04261 0.117351,4.2e-5 0.170616,0.04266 0.03196,0 0.06376,0.01061 0.09571,0.01061 0.07458,0.04261 0.15992,4.1e-5 0.234491,0.04266 h 0.724285 c 0.07458,-0.04261 0.15992,-4.3e-5 0.23449,-0.04266 0.03196,0 0.06395,-0.01061 0.09592,-0.01061 0.05326,-0.04262 0.117141,-0.01069 0.170406,-0.04266 l 0.02123,-0.01061 h 0.02143 c 0.03196,-0.0213 0.08517,-0.02136 0.117141,-0.04266 l 0.02123,-0.01061 h 0.02143 c 0.03196,-0.0213 0.08518,-0.02135 0.117141,-0.04266 l 0.01061,-0.01061 h 0.02123 c 0.03196,0 0.05339,-0.02135 0.07469,-0.04266 l 0.01061,-0.01061 h 0.02123 c 0.03196,0 0.05339,-0.02135 0.07469,-0.04266 l 0.01061,-0.02123 h 0.02123 c 0.03196,0 0.05339,-0.02135 0.07469,-0.04266 0.02131,-0.03196 0.07462,-0.02127 0.09592,-0.06387 0.0213,-0.01065 0.04257,-0.03201 0.06387,-0.04266 0.0213,-0.03196 0.07462,-0.02127 0.09592,-0.06387 0.03196,0 0.05322,-0.0213 0.06387,-0.05326 0.0213,-0.01065 0.0426,-0.03196 0.05327,-0.05326 0.02131,-0.01065 0.0426,-0.03196 0.05327,-0.05326 0.0213,-0.01065 0.04262,-0.03196 0.05326,-0.05327 0.0213,-0.01065 0.04261,-0.03196 0.05327,-0.05326 0.0213,-0.01065 0.0426,-0.03196 0.05326,-0.05327 0.03196,-0.01065 0.05327,-0.03192 0.05327,-0.06387 0.04261,-0.01065 0.03191,-0.07462 0.06387,-0.09592 0.0213,-0.0213 0.032,-0.04258 0.04266,-0.06387 0.04261,-0.0213 0.03191,-0.07462 0.06387,-0.09592 0.0213,-0.0213 0.04266,-0.04254 0.04266,-0.07449 -0.01065,-0.0213 -4.2e-5,-0.03204 0.01061,-0.03204 0.0213,-0.0213 0.032,-0.04254 0.04266,-0.07449 -0.01065,-0.0213 -4.1e-5,-0.03204 0.01061,-0.03204 0.0213,-0.0213 0.04266,-0.04253 0.04266,-0.07449 v -0.02143 l 0.01061,-0.01061 c 0.0213,-0.03196 0.032,-0.07452 0.04266,-0.117142 -0.01065,-0.01065 -4e-5,-0.032 0.01061,-0.04266 0.0213,-0.03196 0.02135,-0.08518 0.04266,-0.117143 -0.01065,-0.0213 -0.01068,-0.032 0.01061,-0.04266 0.0426,-0.05326 4.1e-5,-0.117143 0.04266,-0.170409 0,-0.03196 0.01061,-0.06396 0.01061,-0.09592 0.03196,-0.08523 0.03196,-0.181103 0,-0.266327 -0.06391,-0.07458 0.01065,-0.191756 -0.05326,-0.266326 -0.02131,-0.04261 -0.02131,-0.09596 0,-0.138574 -0.05326,-0.106531 0.01075,-0.234284 -0.02123,-0.340814 l -0.01082,-0.01061 c 0.06392,-0.01066 0.09605,-0.02143 0.11735,-0.02143 -0.06391,-0.0213 -0.127878,-0.04257 -0.20245,-0.06387 -0.0213,-0.010656 -0.04258,-0.010613 -0.06387,-0.021228 0.07458,-0.074573 0.159711,-0.0427 0.234283,-0.032043 0.149143,0.031959 0.181145,-0.063874 0.202451,-0.170408 0.01065,-0.3515507 -0.03196,-0.692532 0,-1.0440825 -0.01065,-0.053261 -0.04266,-0.1064063 -0.09592,-0.1383656 -0.05326,-0.042609 4.3e-5,-0.1171842 -0.06387,-0.1597957 -0.0213,-0.031956 -0.02135,-0.085179 -0.04266,-0.1171422 -0.05327,-0.09588 -0.159879,-0.063961 -0.245104,-0.095918 -0.03196,0 -0.05315,-0.010613 -0.0851,-0.010613 -0.07457,-0.042609 -0.159921,-4.1e-5 -0.234493,-0.042657 -0.03196,0 -0.06376,-0.010615 -0.09571,-0.010615 C 73.863529,8.129509 73.799448,8.161423 73.746183,8.118808 73.490537,8.097506 73.245559,8.076202 72.989885,8.06555 72.79813,8.054898 72.787435,8.054809 72.787435,8.2465685 v 1.5340819 c 0,0.2982866 0.01065,0.5966136 0,0.8949006 -0.01065,0.394163 -0.276854,0.649712 -0.671018,0.671019 -0.372857,0.04261 -0.713714,-0.223633 -0.756325,-0.607142 -0.0213,-0.117184 -0.02143,-0.234451 -0.02143,-0.351634 V 3.0798547 c 0,-0.095879 -4.1e-5,-0.2022834 0.01061,-0.2981614 0.0213,-0.3835099 0.351592,-0.6713088 0.735102,-0.6500036 h 0.01061 c 0.41547,0.021304 0.68184,0.287758 0.68184,0.7138804 v 3.9628574 c 0.01065,0.010652 0.01078,0.021432 0.02143,0.021432 v 0.1916311 c -0.01065,0.031956 -0.01065,0.064001 0,0.085305 0,0.010652 -0.01075,0.032005 -0.03204,0.042657 0,0.1917551 0.01065,0.3727321 0,0.5644881 -0.0213,0.074576 0.02135,0.1599205 0.09592,0.1812268 0.03196,0.010652 0.05315,0.010652 0.0851,0 0.191756,0 0.383595,0.021304 0.564697,0.05327 0.106531,0.053261 0.23445,-0.010818 0.351634,0.042443 0.0426,-0.010652 0.09574,-0.010487 0.138366,0.010818 0.09588,0.042609 0.202491,-2.128e-4 0.298368,0.042443 0.05326,-0.021304 0.07449,-0.074409 0.127755,-0.095712 l 0.02143,-0.010818 h 0.02123 c 0.04261,-0.042609 0.117099,-0.074526 0.181017,-0.063874 0.0213,0.05327 0.05331,0.042569 0.09592,0.010613 v -0.0851 c -0.01065,-0.031956 -0.03191,-0.053261 -0.06387,-0.053261 -0.03196,-0.05327 -0.02135,-0.1279622 0.01061,-0.1812267 0.02131,-0.021304 0.04261,-0.042531 0.05327,-0.074488 V 5.0613243 c 0,-0.031956 -0.0213,-0.063835 -0.05327,-0.074488 0,-0.031956 -0.02135,-0.053221 -0.04266,-0.063874 -0.03196,-0.05327 -0.03196,-0.1065311 0,-0.1597956 0.0213,-0.021304 0.04266,-0.053349 0.04266,-0.085305 v -0.021227 l 0.01061,-0.010613 c 0.0213,-0.021304 0.04266,-0.042735 0.04266,-0.074701 v -1.949384 c -0.04261,-0.074576 -4.2e-5,-0.1599205 -0.04266,-0.2344923 0,-0.031956 -0.01061,-0.063961 -0.01061,-0.095918 -0.04261,-0.05327 -0.01068,-0.1277954 -0.04266,-0.1704078 -0.01065,-0.010652 -0.02127,-0.032005 -0.01061,-0.042657 -0.0213,-0.042613 -0.02136,-0.085143 -0.04266,-0.1277539 -0.0213,-0.010653 -0.02127,-0.021347 -0.01061,-0.042654 -0.01065,-0.042613 -0.03196,-0.085141 -0.05327,-0.1277536 -0.03196,-0.03196 -0.02131,-0.074572 -0.05326,-0.1065308 -0.0213,-0.03196 -0.04261,-0.074572 -0.05327,-0.1065306 -0.0213,-0.042613 -0.04257,-0.074572 -0.06387,-0.1065308 -0.01065,-0.021306 -0.02136,-0.042613 -0.04266,-0.053266 -0.01065,0 -0.02123,-0.010737 -0.02123,-0.032042 0,-0.03196 -0.0213,-0.063835 -0.05327,-0.074488 -0.01065,-0.021306 -0.03199,-0.04257 -0.04266,-0.063876 -0.03196,-0.021306 -0.02123,-0.074655 -0.07449,-0.085308 0,-0.03196 -0.02135,-0.053266 -0.04266,-0.053266 h -0.01061 c -0.01065,-0.03196 -0.0213,-0.042613 -0.05327,-0.053266 -0.01065,-0.021306 -0.03196,-0.042613 -0.05326,-0.0532657 -0.01065,-0.0213063 -0.03196,-0.0426126 -0.05326,-0.0532657 0,-0.0319594 -0.0213,-0.0532657 -0.05327,-0.0532657 -0.01065,-0.0426126 -0.07466,-0.031917 -0.0853,-0.0638764 -0.0213,-0.0106531 -0.04257,-0.0320008 -0.06387,-0.0426529 -0.0213,-0.0213063 -0.04273,-0.0426126 -0.07469,-0.0532657 -0.0213,0.0106532 -0.03183,8.312e-5 -0.03183,-0.0212235 -0.0213,-0.0106531 -0.04257,-0.0213487 -0.06387,-0.042654 -0.0213,-0.0426126 -0.07458,-0.0212639 -0.106529,-0.0638764 -0.03197,-0.0319594 -0.07458,-0.0213063 -0.106536,-0.0532657 -0.03196,-0.0319594 -0.07458,-0.0213063 -0.106531,-0.0532657 -0.04261,-0.0213063 -0.08535,-0.0426126 -0.127961,-0.0532657 -0.0213,0.0106532 -0.032,0.0104865 -0.04266,-0.0108187 -0.04262,-0.0213063 -0.08514,-0.0317939 -0.127755,-0.042446 -0.01065,0.0106531 -0.03204,0.0106531 -0.03204,0 0,0 4.1e-5,-0.0108187 -0.01061,-0.0108187 -0.05327,-0.0426126 -0.127754,-0.0104865 -0.18102,-0.042446 -0.03196,0 -0.06396,-0.0108187 -0.09592,-0.0108187 -0.07458,-0.0426126 -0.159711,2.1302e-4 -0.234284,-0.042446 z M 69.793831,5.7113279 c -0.02131,0 -0.05319,-0.010818 -0.07449,-0.010818 0.0213,0.010652 0.05319,0.010818 0.07449,0.010818 z M 62.432604,0.29948803 c -0.08523,0.0532657 -0.191715,4.151e-5 -0.276939,0.0426529 -0.03196,0 -0.05334,0.0106139 -0.0853,0.0106139 -0.04261,0.0106532 -0.08513,0.0213477 -0.127754,0.0426529 -0.03196,0.0106532 -0.05335,0.0105714 -0.0853,0.0212235 -0.05327,0 -0.09574,0.0213477 -0.138363,0.0426529 l -0.01083,0.0106139 h -0.02123 c -0.03196,0 -0.05319,0.010737 -0.07449,0.0320423 -0.01065,0.0213063 -0.02136,0.0212639 -0.04266,0.0106139 -0.04261,0.0106532 -0.08518,0.0319594 -0.117141,0.0532657 -0.03196,0.0106531 -0.07458,0.0319594 -0.106532,0.0532657 -0.03196,0.0319594 -0.08523,0.0212639 -0.106529,0.0638764 -0.0213,0.0106532 -0.04279,0.0213477 -0.06409,0.042654 -0.0213,0.0319594 -0.0744,0.0212639 -0.09571,0.0638764 -0.0213,0.0106532 -0.04278,0.0319594 -0.06409,0.0532657 -0.0213,0.0106531 -0.04257,0.0319594 -0.06387,0.0532657 -0.10653,0.074572 -0.191755,0.15979597 -0.266327,0.26632657 -0.01065,0.021306 -0.02135,0.042613 -0.04266,0.053266 -0.0213,0.010653 -0.03179,0.03196 -0.04244,0.053266 -0.03196,0.010653 -0.05326,0.042736 -0.05326,0.074696 0.01065,0.021306 -1.08e-4,0.031834 -0.02143,0.031834 -0.01065,0.021306 -0.02136,0.042613 -0.04266,0.053266 -0.03196,0.021306 -0.02127,0.074572 -0.06387,0.1065307 -0.0213,0.021306 -0.04266,0.042738 -0.04266,0.074695 0.01065,0.021306 4e-5,0.031834 -0.01061,0.031834 -0.0213,0.021306 -0.032,0.042736 -0.04266,0.074696 0.01065,0.010653 4.3e-5,0.021181 -0.01061,0.031834 -0.0213,0.03196 -0.032,0.074572 -0.04266,0.1065307 -0.0213,0.042613 -0.04261,0.085348 -0.05327,0.1279613 l 0.01083,0.021224 -0.01083,0.010613 c -0.04261,0.053266 -0.01065,0.1171427 -0.05327,0.1704083 0.01065,0.021304 0.01069,0.031995 -0.01061,0.042657 -0.02131,0.063923 -0.032,0.1279203 -0.04266,0.1918389 0.01065,0.042609 4e-5,0.095752 -0.01061,0.1383646 -0.04261,0.7031023 -0.04261,1.4062875 0,2.10939 0.0213,0.031956 0.04261,0.074575 0.05327,0.106531 0.03196,0.031957 0.0213,0.074575 0.05326,0.1065301 0.02131,0.031956 0.02131,0.074575 0,0.1065312 -0.03196,0.031957 -0.0213,0.074575 -0.05326,0.10653 -0.01065,0.021304 -0.03196,0.042609 -0.05327,0.053261 -0.05326,0.3515517 -0.01061,0.6925321 -0.02123,1.0440838 -0.0213,0.4580818 0.01051,0.9268167 0.0851,1.3848984 0.01065,0.021304 0.032,0.042569 0.04266,0.063874 0.04261,0.021304 0.02131,0.074576 0.05327,0.1065303 0.01065,0.021304 0.03196,0.042609 0.05327,0.053261 0.06391,0.05327 -0.02135,0.1597957 0.06387,0.2130613 l -0.01061,-0.010613 c 0.149142,0.031956 0.28759,0.053221 0.436733,0.063874 -0.07458,-0.010652 -0.149143,-8.29e-5 -0.213062,0.021226 -0.0213,0.010652 -0.04261,0.031956 -0.05326,0.053271 -0.05327,0.021304 -0.03191,0.074613 -0.06387,0.095918 -0.0213,0.021304 -0.04266,0.042531 -0.04266,0.074486 0.01065,0.021304 4.3e-5,0.032044 -0.01061,0.032044 -0.02131,0.021304 -0.03199,0.053183 -0.04266,0.074488 0.01065,0.021304 4.1e-5,0.032044 -0.01061,0.032044 -0.03196,0.053261 -0.01069,0.1171422 -0.04266,0.1704079 -0.0213,0.010652 -0.04261,0.031917 -0.05326,0.063874 -0.03196,0.010652 -0.05322,0.031956 -0.06387,0.053261 -0.0213,0.010652 -0.04261,0.031956 -0.05326,0.053261 -0.0213,0.010652 -0.04261,0.031957 -0.05326,0.05327 -0.07457,0.4474286 -0.02123,0.8948566 -0.02123,1.3316321 0,0.07458 0.05319,0.106698 0.127753,0.06409 0.07457,-0.04261 0.106655,-0.03196 0.127962,0 0.01065,-0.01065 0.02118,-0.01065 0.03183,0 l -0.03183,0.5751 c 0,0.01065 -4.1e-5,0.0214 0.01061,0.03204 0.01065,0 0.02118,-0.01061 0.03183,-0.01061 0.09588,0.01065 0.202493,0.01061 0.298369,0.01061 0.06392,0.01065 0.12788,0.04266 0.149185,0.04266 -0.03196,-0.0213 -0.06392,-0.032 -0.10653,-0.04266 h 0.02123 c 0.06392,0.0213 0.127962,0.03191 0.234492,0.06387 -0.127836,0.04261 -0.213227,0.05331 -0.277146,-0.01061 -0.127837,-0.01065 -0.255632,-0.01061 -0.383469,-0.02123 l -0.01061,-0.01082 c -0.01065,0 -0.032,0.01079 -0.04266,0.02143 -0.0213,0.01065 -0.04261,0.03196 -0.05327,0.05327 l -0.05326,0.05326 c 0,0.20241 0.117225,0.383471 0.09592,0.596532 0.01065,0.01065 0.02127,0.032 0.01061,0.04266 0.01065,0.04261 0.03196,0.08518 0.05326,0.117143 0.03196,0.03196 0.0213,0.07457 0.05327,0.10653 0.03196,0.03196 0.0213,0.07457 0.05326,0.106531 0.03196,0.0213 0.02127,0.08526 0.06387,0.09592 0,0.03196 0.0213,0.05322 0.05327,0.06387 0.01065,0.04261 0.0213,0.07457 0.05327,0.10653 0,0.03196 0.0213,0.05322 0.05326,0.06387 0.01065,0.0213 0.03196,0.04261 0.05326,0.05326 l 0.05326,0.05326 c 0.0213,0.01065 0.04261,0.03196 0.05327,0.05327 0.0213,0.01065 0.04261,0.03196 0.05327,0.05326 0.0213,0.01065 0.04261,0.03196 0.05327,0.05327 l 0.05326,0.05326 c 0.0213,0.0213 0.04278,0.04261 0.06409,0.05327 0.01065,0.03196 0.04254,0.05326 0.07449,0.05326 h 0.02123 l 0.01082,0.02143 c 0.0213,0.01065 0.04261,0.02115 0.05327,0.04244 0.0213,0.03196 0.04253,0.04262 0.07449,0.05326 h 0.02123 l 0.01083,0.02143 c 0.0213,0.01065 0.04257,0.032 0.06387,0.04266 h 0.02123 l 0.02143,0.02123 c 0.0213,0.01065 0.04257,0.02135 0.06387,0.04266 0.03196,0.0213 0.07453,0.04261 0.117142,0.05327 h 0.02123 l 0.01083,0.01061 c 0.03196,0.0213 0.07458,0.02135 0.106532,0.04266 0.0426,0.05326 0.117142,0.01065 0.170408,0.05326 h 0.02123 l 0.02143,0.01061 c 0.05326,0.03196 0.117142,4.2e-5 0.170408,0.04266 l 0.02123,-0.01061 0.02143,0.01061 c 0.08523,0.05326 0.191714,-0.01061 0.276938,0.04266 h 0.713672 c 0.07458,-0.04261 0.159879,-4.2e-5 0.245104,-0.04266 0.03196,0 0.06397,-0.01061 0.09592,-0.01061 0.05327,-0.03196 0.127754,-4e-5 0.181019,-0.04266 l 0.01061,-0.01061 0.02143,0.01061 c 0.04261,-0.0213 0.08513,-0.02135 0.127756,-0.04266 l 0.02123,-0.01061 h 0.02143 c 0.04261,-0.01065 0.08513,-0.03196 0.127752,-0.05326 0.03196,-0.03196 0.07458,-0.0213 0.106531,-0.05327 0.03196,-0.03196 0.07458,-0.0213 0.10653,-0.05326 0.02131,-0.03196 0.07458,-0.02127 0.106532,-0.06387 0.0213,-0.01065 0.0426,-0.02136 0.05326,-0.04266 0,-0.01065 0.0214,-0.02143 0.03204,-0.02143 0.03196,0 0.06383,-0.0213 0.07449,-0.05326 0.0213,-0.01065 0.04257,-0.03179 0.06387,-0.04244 0.0213,-0.03196 0.07466,-0.02143 0.0853,-0.0747 0.03196,0 0.05327,-0.02135 0.05327,-0.04266 v -0.01061 c 0.03196,-0.01065 0.04261,-0.0213 0.05327,-0.05326 0.03196,-0.01065 0.04261,-0.0213 0.05326,-0.05326 0.03196,-0.01065 0.04261,-0.0213 0.05327,-0.05327 0.03196,-0.01065 0.05326,-0.04253 0.05326,-0.07449 0,-0.0213 -8.4e-5,-0.03204 0.02123,-0.03204 0.01065,-0.0213 0.02135,-0.04261 0.04266,-0.05326 0.01065,-0.0213 0.032,-0.03196 0.04266,-0.05327 0.03196,-0.01065 0.05327,-0.04254 0.05327,-0.07449 v -0.02143 l 0.02123,-0.01061 c 0.01065,-0.0213 0.02135,-0.04261 0.04266,-0.05326 0.04261,-0.0213 0.03191,-0.07458 0.06387,-0.106532 0.03196,-0.03196 0.0213,-0.07458 0.05327,-0.106529 0.0213,-0.03196 0.04261,-0.07453 0.05326,-0.117142 -0.01065,-0.01065 1.42e-4,-0.032 0.01083,-0.04266 0.01065,-0.03196 0.02115,-0.07458 0.04244,-0.106531 0.05327,-0.04261 0.01065,-0.117143 0.05327,-0.170408 -0.01065,-0.0213 -0.0105,-0.03199 0.01083,-0.04266 0.03196,-0.05326 0.01051,-0.127754 0.04244,-0.18102 0,-0.03196 0.01083,-0.06396 0.01083,-0.09592 0.05327,-0.106531 -0.01083,-0.234283 0.04244,-0.340815 0,-0.255673 -0.01061,-0.522083 -0.01061,-0.7777564 0,-0.9694284 0.01061,-1.9389404 0.01061,-2.9083695 -0.01065,-0.042609 1.07e-4,-0.085179 0.02143,-0.1171422 V 6.5741606 c 0,-0.042609 -0.02131,-0.074653 -0.05327,-0.085305 -0.01065,-0.021304 -0.03199,-0.031957 -0.04266,-0.053261 -0.0426,-0.021304 -0.0213,-0.074575 -0.05327,-0.1065302 -0.0213,-0.010652 -0.02127,-0.021352 -0.01061,-0.042657 -0.04261,-0.1278364 -0.04261,-0.266243 0,-0.3940802 -0.01065,-0.021304 -0.01068,-0.031995 0.01061,-0.042657 0.02131,-0.031956 0.0853,-0.021226 0.0853,-0.074486 0.01065,0 0.02123,4.2e-5 0.02123,-0.010614 0.01065,0 8.3e-5,-0.010779 -0.02123,-0.021431 -0.01065,-0.053261 -0.08526,-0.021227 -0.09592,-0.074488 0,-0.010652 -0.01061,-0.010779 -0.01061,-0.021431 0,-0.010652 0.01061,-0.021178 0.01061,-0.031839 0.03196,-0.031956 0.0213,-0.074575 0.05326,-0.10653 v 0.010613 c 0.0213,0 0.03196,0.010613 0.05327,0.010613 0.0213,0.010652 0.03196,0.010652 0.05327,0 0,-0.074575 4.2e-5,-0.1597127 -0.01061,-0.2342844 -0.0213,0.042609 -0.05331,0.085139 -0.09592,0.1277544 0,-0.010652 -0.01068,-0.021227 -0.04266,-0.021227 -0.04261,-0.010652 -0.09588,0.053309 -0.106531,-0.010613 -0.01065,-0.085228 0.06387,-0.05327 0.117144,-0.05327 0.05326,0.010652 0.106613,-0.02147 0.138572,-0.064089 -0.01065,-0.8309396 -0.01065,-1.6725314 0,-2.5034701 -0.05327,-0.106531 0.01061,-0.2342844 -0.04266,-0.3408157 0,-0.031956 -0.01061,-0.064001 -0.01061,-0.085305 0,-0.042609 -0.03191,-0.085188 -0.06387,-0.1171422 -0.0213,0.010652 -0.03204,8.3e-5 -0.03204,-0.021227 -0.0213,-0.010652 -0.04261,-0.021352 -0.05326,-0.042657 -0.01065,-0.021304 -0.03196,-0.042609 -0.05326,-0.053261 -0.03196,-0.031957 -0.02126,-0.085227 -0.06387,-0.1065313 -0.03196,-0.074572 -0.03199,-0.1597545 0.01061,-0.2236728 0.0213,-0.010653 0.032,-0.03196 0.04266,-0.053266 -0.01065,-0.010653 -0.01065,-0.032 0,-0.042654 -0.0213,-0.03196 -0.01061,-0.095836 -0.06387,-0.117142 v 0.010613 c -0.04261,-0.053266 -0.08523,-0.1064892 -0.10653,-0.1704076 -0.03196,-0.021306 -0.02147,-0.085266 -0.06409,-0.095919 -0.01065,-0.03196 -0.03196,-0.053223 -0.05327,-0.063876 -0.01065,-0.03196 -0.04254,-0.053266 -0.07449,-0.053266 h -0.02123 l -0.01083,-0.010613 c -0.0213,-0.03196 -0.0744,-0.010653 -0.09571,-0.053266 l -0.01082,-0.010817 c -0.06393,-0.031959 -0.01066,-0.1170176 -0.05326,-0.14897688 -0.0213,-0.0106531 -0.03179,-0.0319594 -0.04244,-0.0532657 h -0.01083 c -0.0213,-0.0106532 -0.04261,-0.0319594 -0.05326,-0.0532657 -0.0213,-0.0106531 -0.04261,-0.0319594 -0.05327,-0.0532657 -0.01065,-0.0213063 -0.03191,-0.042654 -0.06387,-0.042654 -0.0213,-0.0426126 -0.07462,-0.031917 -0.09592,-0.0638764 -0.0213,-0.0213063 -0.04258,-0.0320009 -0.06387,-0.042654 -0.0213,-0.0426126 -0.07458,-0.031917 -0.10653,-0.0638764 -0.03197,-0.0213063 -0.06392,-0.0426126 -0.106539,-0.0532657 -0.03196,-0.0213063 -0.07453,-0.0426126 -0.117142,-0.0532657 -0.01065,0.0106532 -0.03201,-2.1303e-4 -0.04266,-0.0108187 -0.0213,-0.0213063 -0.04254,-0.0318342 -0.07449,-0.0318342 h -0.02144 l -0.01061,-0.010614 c -0.04262,-0.021267 -0.0851,-0.0426147 -0.138366,-0.0426147 l -0.02143,0.0106138 -0.01061,-0.0106138 c -0.05326,-0.0426126 -0.127754,-0.0106946 -0.181018,-0.042654 -0.03196,0 -0.05335,-0.0106138 -0.0853,-0.0106138 -0.07458,-0.0426126 -0.170534,-4.149e-5 -0.245106,-0.0426529 z M 8.6772796,0.40601878 V 10.249492 c 0,1.53404 1.0333055,2.567347 2.5673454,2.567347 1.566003,0 2.578002,-1.011957 2.567348,-2.577959 V 0.88540664 H 11.873199 V 10.366634 c 0,0.351551 -0.277021,0.628573 -0.628574,0.628573 -0.351549,0 -0.62857,-0.277022 -0.62857,-0.628573 V 0.40601878 Z m 42.3638274,0.0667889 c -0.146522,-0.0083 -0.217764,0.0557632 -0.199121,0.24219115 0.0213,0.13848977 0.0213,0.28763267 0,0.42612247 -0.0213,0.2237144 0.03208,0.3407734 0.287756,0.2981612 0.07458,-0.010653 0.159797,-0.031917 0.213062,0.042654 -0.01065,0 -0.01078,-4.18e-5 -0.02143,0.010613 -0.01065,0 -0.02123,0.010779 -0.02123,0.021432 -0.0213,0.021306 -0.05334,0.021263 -0.0853,0.010613 -0.10653,0.053266 -0.234284,-0.021306 -0.340814,0.053266 -0.03196,0.042613 -0.0427,0.095919 -0.03204,0.1491845 0,1.6831841 -0.01065,3.3664105 0,5.0495942 0.03196,0 0.05339,0.021139 0.07469,0.042443 0.04261,-0.010652 0.106532,-0.021227 0.106532,0.032045 0,0.042609 -0.03191,0.074488 -0.06387,0.074488 h -0.02143 c 0.0213,-0.010652 0.02127,-0.031956 0.01061,-0.053261 v -0.010613 h -0.02123 c -0.01065,0.021304 -0.01061,0.031956 -0.01061,0.053271 h -0.05326 c 0,-0.010652 -4.1e-5,-0.021227 0.01061,-0.021227 -0.01065,0.010652 -0.02139,0.010561 -0.03204,0.021227 -0.0213,0.021304 -0.03188,0.042735 -0.02123,0.074692 0.0213,0.5326535 -0.03188,1.0653071 0.03204,1.5979606 0.05327,0.042609 0,0.1171833 0.05327,0.1597958 l 0.01061,0.010613 -0.01061,0.021226 c 0.0213,0.042609 0.0213,0.106572 0,0.1491844 l 0.01061,0.021227 -0.01061,0.010818 c -0.0213,0.042609 -0.04266,0.085139 -0.04266,0.1277532 0.01065,0.010652 0,0.021392 0,0.032044 h -0.01061 c -0.0213,0.2450212 -0.064,0.5006946 0.02123,0.7457149 -0.05326,0.1704489 -0.02127,0.3621209 0.09592,0.5006109 -0.0213,0.0213 -0.04257,0.03196 -0.06387,0.05326 0.01065,0.01065 0.02118,0.02136 0.03183,0.04266 -0.01065,-0.01065 -0.032,-0.02127 -0.04266,-0.01061 l -0.01061,0.01061 c -0.0213,0.05326 -0.02127,0.106531 -0.01061,0.159796 0,0.0213 0.01061,0.04257 0.01061,0.06387 -0.01065,0.01065 -0.01061,0.02123 -0.02123,0.02123 l -0.01061,-0.01061 c -0.0426,0.213061 -0.04266,0.426123 0.01061,0.639184 v 0.02143 c 0,0.0213 -0.01078,0.03179 -0.02143,0.04244 -0.05327,0.404816 -0.01061,0.809716 -0.02123,1.203879 0.01065,0.0213 0.0214,0.032 0.03204,0.04266 v -0.02143 c 0.07458,0 0.13849,2.12e-4 0.213061,0.01082 0.127837,-0.05326 0.255591,-0.06392 0.394082,-0.05326 -0.01065,0.05326 -0.05327,0.08506 -0.106531,0.09571 -0.0213,0.01065 -0.03196,0.01079 -0.05326,0.02143 l 0.03204,0.02123 v 0.03204 c -0.07458,0 -0.127879,-0.01061 -0.20245,-0.01061 -0.0213,0 -0.05339,0.01061 -0.0747,0.01061 -0.03196,0 -0.05315,4.1e-5 -0.0851,-0.01061 h -0.07469 c -0.01065,0.05326 -0.01051,0.106364 0.02143,0.148977 0.01065,-0.0213 0.04261,-0.02127 0.05326,-0.01061 0,0 0.01061,-4.2e-5 0.01061,0.01061 0.127837,-0.04261 0.255633,-0.04261 0.383469,0 0,0 -0.01061,-0.01061 -0.01061,-0.02123 0.01065,0 0.0214,0.01061 0.03204,0.01061 h 0.724284 c 0.617878,-0.01065 1.246409,0.03204 1.864286,-0.02123 0.03196,0 0.06397,-0.01061 0.09592,-0.01061 0.06392,-0.05327 0.159755,-4.1e-5 0.223673,-0.04266 l 0.02143,-0.01061 0.02123,0.01061 c 0.05327,-0.04261 0.127796,0 0.170408,-0.05326 l 0.01061,-0.01061 0.02143,0.01061 c 0.05327,0 0.09574,-0.0213 0.138366,-0.05326 0.03196,-0.03196 0.07458,-0.0213 0.106532,-0.05327 l 0.01082,-0.01061 h 0.02123 c 0.03196,0 0.05319,-0.02135 0.07449,-0.04266 l 0.01083,-0.01061 h 0.02123 c 0.03196,0 0.05319,-0.02135 0.07449,-0.04266 0.0213,-0.03196 0.07458,-0.02127 0.106531,-0.06387 0.0213,-0.01065 0.04261,-0.02135 0.05327,-0.04266 0,-0.02131 0.01075,-0.02143 0.03204,-0.02143 0.03196,0 0.06383,-0.02131 0.07449,-0.05327 0.0213,-0.01065 0.04261,-0.02115 0.05327,-0.04244 0.01065,-0.0213 0.03196,-0.032 0.05326,-0.04266 0.01065,-0.0213 0.03196,-0.03201 0.05327,-0.04266 l 0.01082,-0.01061 0.159797,-0.159796 v -0.01061 c 0.01065,-0.0213 0.02114,-0.04261 0.04244,-0.05327 0.01065,-0.0213 0.03196,-0.04278 0.05326,-0.06409 0.0213,-0.0213 0.04261,-0.04257 0.05327,-0.06387 0.04261,-0.0213 0.03211,-0.07462 0.06409,-0.09592 0.0213,-0.0213 0.03179,-0.04258 0.04244,-0.06387 0.04261,-0.0213 0.03211,-0.07458 0.06409,-0.106532 0.0213,-0.03196 0.04262,-0.06391 0.05326,-0.106529 0.0213,-0.03196 0.04261,-0.07453 0.05327,-0.117144 -0.01065,-0.01065 -4.2e-5,-0.032 0.01061,-0.04266 0.0213,-0.0213 0.03183,-0.04254 0.03183,-0.07449 v -0.02143 l 0.01083,-0.01061 c 0.0213,-0.04261 0.04244,-0.08513 0.04244,-0.127753 l -0.01061,-0.02143 0.01061,-0.01061 c 0.04261,-0.05327 0.01068,-0.127753 0.04266,-0.181018 0,-0.03196 0.01061,-0.05335 0.01061,-0.0853 0.04261,-0.07458 0.01068,-0.170325 0.04266,-0.244896 V 8.2892675 C 56.15795,8.2040395 56.22182,8.0975953 56.16855,8.0017183 56.1579,7.9910663 56.14728,7.9697133 56.15794,7.9590613 56.11532,7.9058003 56.14726,7.8419199 56.11528,7.7886544 56.10463,7.7780024 56.09401,7.7566494 56.10467,7.7459974 56.08337,7.7140404 56.08332,7.6608184 56.06201,7.6288552 56.05136,7.6182032 56.04074,7.5968502 56.0514,7.5861982 56.04075,7.5435892 56.01944,7.5010192 55.99813,7.469056 L 55.98752,7.458238 V 7.437011 c 0,-0.031956 -0.02135,-0.064001 -0.04266,-0.085305 -0.0213,-0.010652 -0.02127,-0.021178 -0.01061,-0.031839 0,-0.031956 -0.02135,-0.053388 -0.04266,-0.074692 L 55.88098,7.234562 V 7.213335 c 0,-0.031957 -0.02135,-0.053388 -0.04266,-0.074701 C 55.80636,7.11733 55.81705,7.053574 55.77445,7.042921 55.7638,7.021617 55.74245,7.000147 55.73179,6.978832 c -0.0213,-0.010652 -0.032,-0.031956 -0.04266,-0.05327 -0.0213,0 -0.02123,-0.010529 -0.02123,-0.031839 0,-0.031956 -0.02131,-0.06404 -0.05326,-0.074692 C 55.60399,6.797727 55.58268,6.776422 55.56138,6.765761 55.55073,6.744457 55.52938,6.723192 55.51872,6.701887 55.50807,6.691235 55.50811,6.691326 55.50811,6.680661 c 0,-0.010652 -4.2e-5,-0.021392 0.01061,-0.032044 0.0213,-0.021304 0.04261,-0.042569 0.05327,-0.063874 C 55.5933,6.574091 55.6146,6.552787 55.62525,6.531473 55.65721,6.520821 55.67852,6.499556 55.67852,6.4676 55.73179,6.456948 55.71043,6.392987 55.74239,6.371682 55.76369,6.36103 55.78505,6.339765 55.78505,6.307808 55.82766,6.286504 55.81696,6.233195 55.84892,6.21189 55.87022,6.190586 55.89158,6.169359 55.89158,6.137402 V 6.11597 L 55.90219,6.105357 C 55.92349,6.084053 55.94485,6.062826 55.94485,6.030869 55.9342,6.009565 55.944809,5.998824 55.95546,5.998824 55.97676,5.97752 55.99812,5.945475 55.99812,5.913519 V 5.892292 l 0.01061,-0.010613 c 0.03196,-0.031957 0.0213,-0.085179 0.05326,-0.1171422 -0.01065,-0.010652 2.84e-4,-0.032005 0.01083,-0.042657 0.0213,-0.031956 0.02115,-0.085179 0.04244,-0.1171423 -0.01065,-0.021304 -0.01051,-0.032005 0.01083,-0.042657 0.04261,-0.05327 -1.42e-4,-0.1171423 0.04244,-0.1704078 -0.01065,-0.021304 -0.01051,-0.031995 0.01083,-0.042657 0.05327,-0.085228 -0.01083,-0.1918799 0.04244,-0.2877579 0.06392,-0.6817962 0.06409,-1.4273442 0.06409,-2.1730589 -0.05326,-0.085226 0.01061,-0.1919208 -0.04266,-0.2771457 0,-0.031956 -0.01061,-0.053143 -0.01061,-0.0851 -0.01065,-0.042609 -0.02135,-0.095956 -0.04266,-0.1385724 -0.01065,-0.010652 -0.02127,-0.031957 -0.01061,-0.05327 -0.04261,-0.042609 0,-0.1171422 -0.05326,-0.1704078 -0.0213,-0.031957 -0.032,-0.074575 -0.04266,-0.1065301 -0.0213,-0.010653 -0.02127,-0.021347 -0.01061,-0.042654 0,-0.042613 -0.0213,-0.085183 -0.05326,-0.1171423 -0.01065,-0.021306 -0.02136,-0.04257 -0.04266,-0.063876 -0.02131,-0.010653 -0.02143,-0.021347 -0.02143,-0.042653 -0.01065,-0.021306 -0.03179,-0.04257 -0.04244,-0.063876 L 55.89159,1.716357 V 1.694926 c 0,-0.03196 -0.0213,-0.063837 -0.05327,-0.074489 C 55.82767,1.599131 55.80633,1.588477 55.79566,1.567171 L 55.77443,1.556557 V 1.535125 c 0,-0.03196 -0.02131,-0.063837 -0.05326,-0.074488 C 55.71052,1.439331 55.68921,1.418067 55.6679,1.396761 55.65725,1.375455 55.63594,1.354148 55.61463,1.343495 L 55.56137,1.290229 C 55.54007,1.279576 55.51875,1.258269 55.5081,1.236963 55.4868,1.22631 55.46549,1.205003 55.45484,1.183697 55.43353,1.173044 55.41223,1.151737 55.40157,1.130431 55.39092,1.109125 55.36961,1.0878182 55.34831,1.0771653 55.33766,1.0558594 55.3164,1.0345525 55.28444,1.0238996 55.26314,0.981287 55.20982,0.9917746 55.18852,0.9598151 55.16722,0.9385088 55.14594,0.9280223 55.12465,0.9173691 55.10335,0.8747565 55.05007,0.8852441 55.018118,0.8532846 54.986158,0.8213252 54.943548,0.8214079 54.91159,0.8320611 c 0,0.0106531 0.01061,0.0105714 0.01061,0.0212235 -0.159796,0.0852252 -0.34098,0.074572 -0.511429,0.1065306 -0.362205,0.0532657 -0.724326,0.0320422 -1.08653,0.085308 -0.170449,0.03196 -0.340816,-0.021347 -0.500612,-0.042653 -0.159795,0.021306 -0.33041,-0.0319594 -0.490206,0 -0.01065,0.031959 -0.0213,0.042613 -0.05327,0.053266 0,0.021306 -0.02115,0.042653 -0.04244,0.042653 h -0.01082 l -0.01061,0.021224 h -0.02123 c -0.03196,0.03196 -0.05339,0.03196 -0.07469,0 -0.03196,0 -0.05322,-0.021306 -0.06387,-0.053266 l 0.03204,-0.031834 -0.01061,-0.010614 -0.04266,-0.042654 C 51.960683,0.9386332 51.91812,0.86402065 51.91812,0.77879621 c 0,-0.0106531 -2.83e-4,-0.0213891 -0.01083,-0.0320423 0,0.0532657 -0.0213,0.11718262 -0.05327,0.15979596 0,-0.0426137 -0.01061,-0.0851413 -0.01061,-0.12775362 0.01065,-0.0639189 -0.03199,-0.13853147 -0.09592,-0.14918451 h -0.06387 -0.319593 c -0.06392,0.0106531 -0.127795,-0.0106138 -0.170405,-0.0638764 0.0213,0 0.04257,4.15e-5 0.06387,-0.0106138 -0.01065,0 -0.032,4.15e-5 -0.04266,-0.0106138 -0.03196,-0.0213063 -0.06391,-0.0427782 -0.10653,-0.0640845 -0.02399,-0.003991 -0.0463,-0.006506 -0.06722,-0.007706 z M 50.969947,12.742351 c 0.04261,0 0.0851,-0.01082 0.138366,-0.01082 -0.01065,0 -0.01061,-0.01061 -0.02123,-0.01061 -0.05327,-0.01065 -0.106531,-4.1e-5 -0.159796,0.01061 0.01065,0.01065 0.032,0.01082 0.04266,0.01082 z M 43.764355,0.49382345 c -0.05726,0 -0.113187,0.007993 -0.166453,0.0399485 -0.09587,0.0213063 -0.191673,0.0213063 -0.28755,0 -0.05326,0.0319594 -0.138572,0 -0.191837,0.0532657 -0.06392,0.0852252 0,0.1919214 -0.05326,0.27714595 0,0.0319594 -0.01061,0.0637523 -0.01061,0.0957106 -0.05326,0.0852252 0.01061,0.1918798 -0.04266,0.2877573 0,0.03196 -0.01061,0.063959 -0.01061,0.095919 -0.05326,0.085226 0.01061,0.1916721 -0.04266,0.2875496 0.01065,0.053266 4.1e-5,0.095919 -0.01061,0.1491846 -0.0213,0.053266 -0.02123,0.1065307 -0.02123,0.159796 h 0.02123 c 0.03196,0.074572 -0.03196,0.1704074 0.05326,0.2236719 0.0213,-0.010652 0.04261,-0.031956 0.05327,-0.053261 0.0213,-0.042609 0.04261,-0.074529 0.05326,-0.1171421 0.03196,-0.03196 0.05327,-0.085348 0.05327,-0.1279614 v -0.021224 l 0.01061,-0.010614 c 0.04261,-0.03196 0.07466,-0.074695 0.0853,-0.1279615 -0.0213,0.095878 0.02123,0.202533 -0.03204,0.2877574 V 2.01459 c 0,0.010653 -0.01061,0.021389 -0.01061,0.032042 -0.0213,0.042612 -0.02135,0.085141 -0.04266,0.127754 l 0.01083,0.021431 -0.01083,0.010614 c -0.04261,0.053261 -0.01065,0.1277533 -0.05326,0.1810189 0.01065,0.021304 0.01068,0.031995 -0.01061,0.042657 -0.0213,0.042609 -0.03199,0.095956 -0.04266,0.1385733 l 0.01082,0.010613 -0.01082,0.010613 c -0.05327,0.042609 -0.01065,0.1171842 -0.05327,0.1597966 -0.05326,0.042609 -0.01065,0.1171423 -0.05326,0.1704069 -0.05327,0.042609 -0.01065,0.1171422 -0.05327,0.1704078 -0.05326,0.042609 -0.0213,0.11735 -0.05326,0.1706156 v -0.010818 c -0.06392,0.042609 -0.0213,0.1279621 -0.05327,0.1812267 l 0.01083,0.021227 -0.01083,0.021431 c -0.01065,0 -0.01061,0.010561 -0.01061,0.021227 0,0.010652 -4.2e-5,0.021227 0.01061,0.021227 h 0.01083 l -0.01083,-0.010613 c 0.04261,0.031956 0.09592,0.042609 0.149185,0.05327 -0.06392,0.042609 -0.106572,0.1172662 -0.09592,0.1918379 l -0.03183,0.03183 c 0.01065,0 0.01061,2.136e-4 0.01061,0.010818 0,0.1384904 0.08526,0.1278374 0.202451,0.1065311 -0.0213,0.010652 -0.03199,0.021178 -0.04266,0.03183 h 0.01061 c -0.01065,0 -0.02123,-4.2e-5 -0.02123,0.010613 -0.03196,0.042609 -0.05322,0.095918 -0.06387,0.1491846 0,0.031956 -1.07e-4,0.063961 -0.02143,0.095918 l 0.01061,0.021227 -0.01061,0.010818 c -0.06392,0.063922 0,0.1597966 -0.05326,0.2130612 -0.0213,0.021304 -0.04261,0.042569 -0.05326,0.063874 -0.0213,0.010652 -0.04261,0.031957 -0.05327,0.053261 -0.0213,0.021304 -0.04261,0.042531 -0.05326,0.074487 -0.03196,0.095878 -0.01051,0.2130192 0.07469,0.2769379 0.01065,0.010652 0.03179,0.010818 0.04244,0.010818 -0.01065,-0.010652 -0.02123,-0.031995 -0.02123,-0.042657 0.09588,-0.021304 0.181062,-0.031957 0.276941,-0.05327 0.07457,-0.010652 0.159835,-0.09584 0.202448,0.042657 -0.127837,0.085228 -0.298285,0.021265 -0.426123,0.1171423 -0.01065,-0.010652 -0.02123,-0.032005 -0.02123,-0.042657 -0.08523,0.042609 -0.138489,-0.05327 -0.213062,-0.05327 -0.04261,0 -0.07457,0.01074 -0.10653,0.032044 -0.03196,0.05327 -4.1e-5,0.1277545 -0.04266,0.181019 0,0.031956 -0.01061,0.063961 -0.01061,0.095918 -0.05326,0.085228 0.01061,0.1916723 -0.04266,0.2875492 0.01065,0.05327 0.01068,0.106572 -0.01061,0.1491845 -0.04261,0.074575 -4.1e-5,0.1597127 -0.04266,0.2342845 0.01065,0.042609 4.2e-5,0.095956 -0.01061,0.1385734 -0.03196,0.074575 -4.3e-5,0.1598786 -0.04266,0.2451035 0.01065,0.063913 0.01069,0.1277115 -0.01061,0.1916301 -0.04261,0.074575 -4.1e-5,0.1597547 -0.04266,0.2236734 0,0.031957 -0.01061,0.063961 -0.01061,0.095918 -0.05327,0.085227 0.01061,0.1918797 -0.04266,0.2877568 0,0.031957 -0.01061,0.063757 -0.01061,0.095712 -0.04261,0.095879 -4.1e-5,0.202492 -0.04266,0.298369 0.01065,0.042609 4.1e-5,0.095956 -0.01061,0.1385735 -0.01065,0.031956 0.01065,0.074448 0.05326,0.0851 h 0.01061 c 0,-0.010652 4.1e-5,-0.010561 -0.01061,-0.021227 0.181102,-0.042609 0.372774,0.042569 0.553876,-0.042657 0.03196,-0.010652 0.06401,-0.032005 0.0853,0.010613 l -0.03204,0.032045 c -0.117182,0.074576 -0.25559,0.1065719 -0.39408,0.095918 -0.0213,-0.021304 -0.04273,-0.031995 -0.07469,-0.042657 -0.05327,0 -0.0958,0.021304 -0.127754,0.053261 -0.01065,0.010652 -0.03199,0.010613 -0.04266,0.010613 -0.03196,0.031956 -0.06387,0.074526 -0.06387,0.1171424 0,0.031956 -0.01061,0.063961 -0.01061,0.095918 -0.04261,0.09588 -4.1e-5,0.2023252 -0.04266,0.287549 0,0.031956 -0.01061,0.053349 -0.01061,0.085305 -0.05327,0.063922 -4.2e-5,0.1597548 -0.04266,0.2236733 0,0.031957 -0.01061,0.063961 -0.01061,0.095918 -0.05327,0.085228 0.01061,0.1917131 -0.04266,0.276938 0,0.031957 -0.01061,0.063961 -0.01061,0.095918 -0.05326,0.085228 0.01061,0.1916717 -0.04266,0.28755 0.01065,0.053261 4.3e-5,0.095918 -0.01061,0.1491845 -0.04261,0.074573 -4.3e-5,0.1599203 -0.04266,0.2344913 0.01065,0.053261 4.2e-5,0.095716 -0.01061,0.1489764 -0.04261,0.074573 -4.1e-5,0.1599224 -0.04266,0.2344924 0.01065,0.05327 4.1e-5,0.09592 -0.01061,0.149185 -0.04261,0.07457 -4.1e-5,0.159713 -0.04266,0.234284 0.01065,0.04261 4e-5,0.09596 -0.01061,0.138573 -0.0426,0.07457 -4.2e-5,0.159714 -0.04266,0.234285 0.01065,0.04261 4.4e-5,0.09596 -0.01061,0.138573 -0.04261,0.07457 -4.2e-5,0.15967 -0.04266,0.244895 0.01065,0.04261 4.1e-5,0.09596 -0.01061,0.138573 -0.04262,0.07457 -4.3e-5,0.170324 -0.04266,0.244896 0.01065,0.04261 4.2e-5,0.09596 -0.01061,0.138573 -0.05327,0.08523 0.01061,0.191714 -0.04266,0.276938 0,0.03196 -0.01061,0.06395 -0.01061,0.09592 -0.05327,0.08523 0.01061,0.191713 -0.04266,0.276937 0,0.03196 -0.01061,0.06396 -0.01061,0.09592 -0.05326,0.08523 0.01061,0.191713 -0.04266,0.276937 0,0.03196 -0.01061,0.06396 -0.01061,0.09592 -0.01065,0.01065 -0.01083,0.01061 -0.01083,0.02123 0,0.01065 0.01079,0.03204 0.02143,0.03204 0.159796,0.06392 0.319592,0.03204 0.479388,0.03204 0.511347,-0.01065 1.011917,0.04253 1.523263,-0.03204 0.06392,-0.08523 0,-0.202325 0.05326,-0.28755 -0.01065,-0.04261 -0.01051,-0.09596 0.01083,-0.138573 0.05326,-0.10653 -0.01083,-0.234285 0.04244,-0.340815 -0.01065,-0.05326 -0.01051,-0.106571 0.01083,-0.149184 0.04262,-0.09588 -2.83e-4,-0.202491 0.04244,-0.29837 -0.01065,-0.06392 1.43e-4,-0.127711 0.01083,-0.19163 0.04261,-0.09588 -0.01083,-0.19188 0.04244,-0.287757 -0.01065,-0.05326 -0.01051,-0.106572 0.01082,-0.149184 0.04261,-0.09587 -2.84e-4,-0.202283 0.04244,-0.298162 -0.01065,-0.06392 -0.01051,-0.127919 0.01082,-0.191837 0.04261,-0.09587 -0.01082,-0.191673 0.04244,-0.28755 -0.01065,-0.09588 -0.01051,-0.159796 0.117351,-0.159796 0.490041,0.01065 0.969346,-0.0214 1.459386,0.02123 0.0213,0.03196 0.03199,0.06391 0.04266,0.106529 0.0213,0.04261 0.02127,0.09592 0.01061,0.149184 0.04261,0.09587 4.1e-5,0.191673 0.04266,0.28755 0.0213,0.04262 0.02127,0.09592 0.01061,0.149185 0.05326,0.08523 4e-5,0.19188 0.04266,0.287757 0.02131,0.04261 0.02127,0.09571 0.01061,0.148977 0.05326,0.08523 4.3e-5,0.191921 0.04266,0.277146 0.0213,0.04261 0.02127,0.09571 0.01061,0.148976 0.05326,0.08523 4.2e-5,0.191922 0.04266,0.277146 0.0213,0.06391 0.03191,0.127712 0.01061,0.191631 0.04261,0.09588 4e-5,0.202491 0.04266,0.298369 0.0213,0.04261 0.02127,0.09574 0.01061,0.138365 0.05326,0.09588 -0.01065,0.202533 0.05326,0.287757 0.500696,0.04262 1.011959,0.05322 1.512653,0.01061 0.03196,-0.0213 0.07458,-0.04261 0.10653,-0.05326 0.0213,-0.01065 0.04278,-0.01065 0.06409,0 0.159796,-0.0213 0.18106,-0.04257 0.170407,-0.223672 -0.0213,-0.276981 -0.08526,-0.54343 -0.09592,-0.820412 v -0.03183 h -0.06387 c -0.01065,-0.09587 -0.01061,-0.191879 -0.01061,-0.287758 0.01065,-0.01065 0.01061,-0.01061 0.02123,-0.01061 l -0.03204,-0.03184 c -0.0213,-0.03196 -0.02114,-0.07474 -0.04244,-0.11735 -0.0213,-0.03196 -0.02147,-0.06376 -0.01083,-0.09571 -0.05326,-0.106532 0.01083,-0.234493 -0.04244,-0.341024 0,-0.03196 -1.43e-4,-0.06396 -0.01083,-0.09592 -0.06392,-0.106531 0.01083,-0.234285 -0.04244,-0.340816 -0.0213,-0.04261 -0.02147,-0.09596 -0.01083,-0.138573 -0.05326,-0.127835 0.01065,-0.276854 -0.05326,-0.4046911 l -0.01061,-0.010613 0.01061,-0.021429 C 47.06005,9.8019606 47.123974,9.6955112 47.06005,9.610286 L 47.04944,9.599673 47.06005,9.578244 C 47.00679,9.4717146 47.0707,9.3440021 47.00679,9.2268185 c -0.0213,-0.010656 -0.0213,-0.021344 0,-0.042657 -0.06391,-0.1065301 0.032,-0.2343253 -0.06387,-0.3302032 -0.07458,-0.074576 -0.181058,-0.010818 -0.276937,-0.064089 -0.08523,-0.010652 -0.159713,-0.031917 -0.234284,-0.063874 -0.06392,-0.031957 -0.138531,-0.042491 -0.20245,-0.03183 -0.0213,0 -0.03196,-0.010779 -0.05326,-0.021432 h 0.0851 c 0.07458,0 0.149311,0.021304 0.22388,0.053261 0.08523,0.021304 0.181102,0.042569 0.266328,0.063874 0.138489,0.021304 0.212895,-0.010652 0.148976,-0.1597957 -0.01065,-0.063922 -0.03191,-0.1277125 -0.06387,-0.1916302 -0.01065,-0.010652 -0.01065,-0.032005 0,-0.042657 l 0.06387,-0.1277534 c 0,-0.010652 -0.01061,-0.010779 -0.01061,-0.021431 0,-0.010652 0.01061,-0.031995 0.01061,-0.042657 -0.03196,-0.063922 -0.01051,-0.1277125 -0.04244,-0.1916312 -0.01065,-0.010652 -0.02147,-0.031995 -0.01083,-0.042657 -0.01065,-0.021304 -0.01065,-0.042569 0,-0.063874 0.03196,-0.031957 0.03211,-0.074576 0.01083,-0.106531 -0.0213,-0.031957 -0.02147,-0.063961 -0.01083,-0.095918 -0.05327,-0.1065301 0.01083,-0.2342846 -0.04244,-0.3408147 0,-0.031956 -1.43e-4,-0.063961 -0.01083,-0.095918 -0.05326,-0.085228 0.01065,-0.1917142 -0.05326,-0.276939 -0.0213,-0.021304 -0.02127,-0.053349 -0.01061,-0.085305 -0.08523,-0.085228 0.02127,-0.202492 -0.04266,-0.298369 -0.0213,-0.031956 -0.02126,-0.063757 -0.01061,-0.095712 -0.06391,-0.1278373 0.0213,-0.2664516 -0.05326,-0.394288 l -0.01061,-0.010613 0.01061,-0.021227 c -0.05325,-0.1278292 0.01066,-0.2770546 -0.05325,-0.4048919 l -0.01061,-0.021227 0.01061,-0.021431 C 46.527462,5.5087576 46.54877,5.370351 46.516819,5.2425137 l -0.01061,-0.010613 0.01061,-0.021431 c -0.01065,-0.042609 -0.03191,-0.095791 -0.06387,-0.1277543 -0.06392,-0.074575 -0.149145,-0.010731 -0.213062,-0.032045 -0.01065,0.010652 -0.02139,0.010779 -0.03204,0.021431 v 0.021227 c -0.117185,0.095879 -0.266161,0.1491426 -0.415305,0.1597957 0.07458,-0.191755 0.266162,-0.1384067 0.36204,-0.2342846 h 0.01083 c 0,-0.021304 -0.01078,-0.042609 -0.02143,-0.053261 -0.0213,-0.010652 -0.02127,-0.021343 -0.01061,-0.042657 -0.0213,-0.021304 -0.0213,-0.064001 0,-0.085304 l -0.01061,-0.021227 0.01061,-0.021432 c 0.06392,-0.074575 -0.01061,-0.1703658 0.04266,-0.2342845 V 4.486186 c -0.01065,-0.021304 -0.02135,-0.042774 -0.04266,-0.064089 -0.07457,-0.1704488 0.127838,-0.2023661 0.159796,-0.3302034 0.04261,-0.042609 0.04261,-0.1171833 0,-0.1597958 -0.03196,-0.031956 -0.02127,-0.085265 -0.06387,-0.095918 -0.01065,-0.021304 -0.02135,-0.053221 -0.04266,-0.063873 -0.0213,-0.010652 -0.02127,-0.021352 -0.01061,-0.042657 -0.01065,-0.031957 -0.03196,-0.053221 -0.05326,-0.063874 -0.04261,-0.021304 -0.08535,-0.042609 -0.127962,-0.053261 -0.0213,0.010652 -0.03183,0.010691 -0.03183,-0.010613 -0.03196,-0.021304 -0.03191,-0.074613 -0.01061,-0.095918 l 0.01061,-0.010613 c 0.08523,-0.063922 0.21302,-0.05327 0.276938,-0.1597957 0.03196,-0.1065311 0.03196,-0.2130612 0,-0.3195923 -0.0213,-0.031956 -0.02127,-0.063961 -0.01061,-0.095918 -0.01065,-0.042609 -0.0213,-0.08514 -0.05327,-0.1277543 -0.01065,-0.021304 -0.03196,-0.042609 -0.05326,-0.053261 -0.106529,0 -0.08523,0.095918 -0.106529,0.1491846 0.0213,0.031956 0.01051,0.063796 -0.02143,0.0851 -0.03196,0 -0.04248,-0.042531 -0.03183,-0.074488 -0.04262,-0.010652 -0.106656,-0.032045 -0.07469,-0.085304 0.0213,-0.063922 0.05334,-0.1277115 0.0853,-0.1916302 0.03196,-0.042609 0.08513,0.053183 0.127753,0.021227 0.01065,-0.010652 0.02143,-0.021392 0.02143,-0.032044 0.03196,-0.031956 0.0213,-0.085188 0.05326,-0.1171423 l -0.01061,-0.010613 0.01061,-0.010613 c 0,-0.063923 -0.09588,-0.09584 -0.05326,-0.1704078 0.03196,-0.053261 0.03191,-0.1065302 0.01061,-0.1597957 0,-0.053271 -0.01061,-0.095919 -0.01061,-0.1491848 -0.05327,-0.095878 0.01061,-0.1918798 -0.04266,-0.2877574 0,-0.03196 -0.01061,-0.063753 -0.01061,-0.095711 -0.05326,-0.085226 0.01061,-0.1918798 -0.04266,-0.2877574 0,-0.03196 -0.01061,-0.063959 -0.01061,-0.095919 -0.05327,-0.085224 -4.1e-5,-0.1917136 -0.04266,-0.27693808 -0.0213,-0.0426126 -0.03191,-0.0851413 -0.01061,-0.12775358 -0.03196,-0.074572 -4.2e-5,-0.17053221 -0.04266,-0.24510361 -0.01065,-0.0106532 -0.01061,-0.0319997 -0.01061,-0.0426529 -0.07457,-0.0639189 -0.17049,-0.0318342 -0.255714,-0.0318342 h -1.715103 c -0.0586,0 -0.117308,-0.00812 -0.174567,-0.00812 z m -5.122625,0.0466066 c -0.0133,2.1313e-4 -0.02663,0.001507 -0.03995,0.00416 h -1.981631 c -0.06391,0 -0.127711,0.0105714 -0.191631,0.0212235 v -0.0212224 h -0.841637 c -0.03196,0.0319594 -0.05331,0.0745296 -0.04266,0.11714207 0,0.0426126 4e-5,0.0851413 -0.01061,0.12775372 -0.04261,-0.0426126 -0.06392,-0.0958783 -0.05326,-0.15979606 0,0.0106532 4e-5,0.0213891 -0.01061,0.0320423 0,0.0852252 -0.04257,0.15983766 -0.117142,0.20244994 -0.0213,0.0106531 -0.03199,0.0211386 -0.04266,0.042446 l -0.01061,0.0108187 0.03183,0.0318342 c -0.01065,0.0319594 -0.03191,0.0532657 -0.06387,0.0532657 -0.01065,0.021306 -0.03196,0.032085 -0.05326,0.021432 -0.01065,0 -0.02123,-0.010778 -0.02123,-0.021432 h -0.02143 l -0.01061,-0.0212235 c -0.0213,0 -0.0426,-0.0213477 -0.05326,-0.0426529 -0.03196,-0.0106532 -0.04261,-0.0213063 -0.05327,-0.0532657 -0.159795,-0.0426126 -1.406121,0.0213063 -1.565916,0 -0.149144,0.0319594 -0.298412,0.0532657 -0.447554,0.0532657 V 2.2382622 h 0.02143 c -0.01065,0.042609 -0.02143,0.074741 -0.02143,0.11735 0.01065,0.021304 0.03196,0.042609 0.05327,0.05327 h 1.608572 c 0.159795,0 0.319592,0.010614 0.479387,0.010614 0.05326,0.095879 0.0214,0.2131031 0.03204,0.3089801 0.0213,0.2769799 -0.03187,0.5432237 0.03204,0.8202028 l 0.01061,-0.010614 h 0.202451 c 0.159796,0 0.330204,0.010614 0.489999,0.010614 h 0.213061 c 0.287634,-0.021304 0.575225,-0.031956 0.862858,-0.053261 l 0.03204,0.032045 h 0.01061 c 0.03196,0 0.06396,-0.010818 0.09592,-0.010818 0.03196,-0.021304 0.05322,-0.053095 0.06387,-0.095712 0,-0.27698 -0.01061,-0.5540429 -0.01061,-0.8310217 0,-0.1917559 -1.07e-4,-0.1918389 0.19163,-0.1918389 h 1.693879 c 0.05326,-0.031956 0.138407,0.010652 0.181019,-0.05327 v 0.010818 c 0.01065,0 0.02143,-2.137e-4 0.02143,-0.010818 0.01065,-0.010652 4.2e-5,-0.021178 -0.01061,-0.031839 v -0.053261 c 0.04261,-0.074575 0.01051,-0.1705328 0.04244,-0.2451037 -0.01065,-0.03196 -0.01051,-0.063794 0.01083,-0.0851 0.06392,-0.1491428 -0.01083,-0.2876743 0.04244,-0.4155113 -0.01065,-0.1065305 -0.01065,-0.2236726 0,-0.3302033 0,-0.03196 -0.0213,-0.064042 -0.05326,-0.074695 -0.01065,-0.021306 -0.03196,-0.042613 -0.05327,-0.053266 -0.03196,-0.074572 -0.03196,-0.17032444 0,-0.24489595 v -0.0108187 c -0.0213,-0.0213063 -0.01051,-0.053183 0.01083,-0.0744893 0.05326,-0.1278363 -0.03212,-0.1279194 -0.117353,-0.13857256 -0.127836,-0.0106531 -0.266243,0.0213891 -0.394082,-0.0212235 l -0.01061,0.0106138 -0.01061,-0.0106138 c -0.03995,-0.0159792 -0.07991,-0.025884 -0.119848,-0.0253842 z M 9.0927917,0.81091781 H 10.211364 V 10.366634 c 0,0.628531 0.415344,1.044083 1.043875,1.044083 0.62853,0 1.044082,-0.415552 1.044082,-1.044083 V 1.3009176 h 1.118572 v 8.9485744 c 0,1.299674 -0.862981,2.162449 -2.162654,2.162449 -1.2996744,0 -2.1624473,-0.873428 -2.1624473,-2.162449 z M 0.21870357,0.88540719 V 13.072555 H 2.15748 V 8.3105103 h 0.6285715 c 1.5553472,0 2.5673459,-1.0013466 2.5673459,-2.5673469 V 3.4527545 c 0,-1.5340416 -1.0333039,-2.56734733 -2.5673459,-2.56734733 z m 17.38571843,0 V 13.072555 h 1.928371 V 8.3105103 h 0.202243 l 1.310411,4.2720447 h 2.01347 L 21.631366,7.916429 C 22.34512,7.4796534 22.739325,6.7125915 22.739325,5.7431624 V 3.4527535 c 0,-1.5340412 -1.033305,-2.56734686 -2.567347,-2.56734686 z m 8.927352,0 V 12.593167 h 5.422454 V 10.771533 H 28.47055 V 7.639492 h 1.92837 V 5.8284712 H 28.47055 V 2.6964285 h 2.801839 V 0.88540664 Z m 16.927763,0.0426529 c 0.04261,0.0852252 0.04266,0.18114371 -0.01061,0.25571521 -0.01065,-0.085226 -0.01068,-0.1704906 0.01061,-0.25571521 z m 11.547965,0.0851 c 0.06392,0.095878 0.05309,0.2131442 -0.01083,0.2983687 -0.159796,0.095878 -0.308773,0.031917 -0.468569,0.010613 0.106531,-0.074572 0.234201,-0.1171004 0.362039,-0.1277535 0.03196,-0.063919 0.07474,-0.1279614 0.11735,-0.1812268 z m -3.174698,0.1065306 c 0,0.010653 0.01061,0.031999 0.01061,0.042653 -0.01065,0.010653 -0.01061,0.010614 -0.02123,0.010614 -0.01065,-0.010653 -0.01061,-0.031793 -0.01061,-0.042446 0.01065,-0.010653 0.02123,-0.010819 0.02123,-0.010818 z m -8.383879,0.085308 v 0.032042 c 0,0.010653 -0.01083,0.031793 -0.01083,0.042446 -0.05326,0.010653 -0.04254,-0.021141 -0.02123,-0.042446 z m 10.876737,0.053266 c 0.0213,0.010653 0.05319,0.021389 0.07449,0.032042 -0.0213,0.010653 -0.05319,0.021181 -0.07449,0.031834 l -0.06387,-0.031834 z M 0.62360475,1.2903067 H 2.7860515 c 1.2996746,0 2.1626545,0.8734273 2.1626545,2.1624478 v 2.2904089 c 0,1.2996746 -0.873633,2.1626554 -2.1626545,2.1626554 H 1.7421764 V 12.657044 H 0.62360475 Z m 17.38571825,0 h 2.162655 c 1.299674,0 2.162447,0.8734273 2.162447,2.1624478 v 2.2904089 c 0,0.9055104 -0.415385,1.6193489 -1.139794,1.9495943 l -0.04266,0.021227 1.363673,4.4636743 H 21.343815 L 20.044016,7.9058179 h -0.916121 v 4.7512251 h -1.118572 z m 8.927351,0.010614 h 3.909593 v 0.9906104 h -2.80184 V 6.24398 h 1.928371 v 0.9906106 h -1.928371 v 3.9522464 h 3.483678 v 0.990818 h -4.591431 z m 16.352456,0.095919 c 0.07458,0.085226 -0.02143,0.1809775 0.03184,0.2448959 H 43.22505 C 43.2144,1.5565095 43.23588,1.4714107 43.28914,1.3968392 Z M 43.2677,1.6523466 v 0.010819 c 0,0.010653 -0.01061,0.010572 -0.01061,0.021224 0,-0.010653 0.01061,-0.021389 0.01061,-0.032043 z m 8.788779,0.042653 c 0.01065,0 0.032,0.021431 0.04266,0.021431 -0.01065,0.010653 -0.02135,0.021224 -0.04266,0.021224 -0.01065,0 -0.032,-0.021224 -0.04266,-0.021224 0.01065,-0.010653 0.032,-0.021431 0.04266,-0.021431 z m -0.895318,0.1285857 c 0.0066,0.00134 0.01387,0.00466 0.02186,0.00999 0.01065,0.010653 0.02127,0.032001 0.01061,0.042654 -0.01065,0.010653 -0.02135,0.021224 -0.04266,0.021224 -0.01065,-0.010653 -0.02123,-0.021389 -0.02123,-0.032042 0,-0.03196 0.01195,-0.045817 0.03142,-0.041822 z m 0.565114,0.2657022 c 0.01065,0 0.01061,-4.19e-5 0.01061,0.010614 0,0.010652 -0.01061,0.021227 -0.02123,0.021227 l -0.02143,-0.021227 c 0.01065,0 0.0214,-0.010614 0.03204,-0.010614 z m 11.028003,0.026006 c 0.06998,-0.00156 0.141069,0.00731 0.210981,0.027255 0.276979,0.085228 0.47947,0.3194676 0.511428,0.6177526 v 0.2130613 c 0.04261,2.5141233 0.04244,5.0069822 0.04244,7.4998006 v 0.0853 c 0.01065,0.319593 -0.09571,0.585794 -0.415302,0.724284 -0.319592,0.13849 -0.649837,0.05326 -0.905512,-0.213061 l -0.04266,-0.04266 c -0.234367,-0.01065 -0.468692,-0.03191 -0.703059,-0.06387 h -0.106531 c -0.05327,0.0213 -0.117183,-4.1e-5 -0.159796,-0.04266 0.170449,-0.06392 0.362205,-0.07449 0.532654,-0.02123 h 0.362037 c -0.03196,-0.170449 -0.04244,-0.34098 -0.04244,-0.51143 V 3.0586568 c 0,-0.1384896 0.01051,-0.2876331 0.04244,-0.4261226 0.08656,-0.3116022 0.370054,-0.5106977 0.673307,-0.5172567 z M 1.7421764,2.2915245 v 4.6234712 h 1.0438751 c 0.5539598,0.031957 1.0121235,-0.3942049 1.0440829,-0.9481638 0.010652,-0.031956 0.010652,-0.063757 0,-0.095712 V 3.3356103 c 0,-0.6285306 -0.4155522,-1.0440829 -1.0440829,-1.0440829 z m 17.3857186,0 v 4.6234712 h 1.044083 c 0.628531,0 1.043876,-0.4259976 1.043876,-1.043876 V 3.3356103 c 0,-0.6285306 -0.415345,-1.0440829 -1.043876,-1.0440829 z m 33.908789,0.085304 c 0.202409,0.010652 0.415345,-4.1e-5 0.617753,0.010614 0.38351,0.021304 0.639143,0.2662848 0.649796,0.6497948 0.01065,0.7031024 0.01065,1.4063296 0,2.0987789 0.01065,0.3515506 -0.255591,0.6497538 -0.607143,0.660407 h -0.03204 c -0.213061,0.010652 -0.426082,-4.2e-5 -0.649797,0.010613 -0.138489,0.010652 -0.159795,-0.053183 -0.159795,-0.181019 V 2.5578513 c -0.01065,-0.1278363 0.03208,-0.181019 0.181226,-0.181019 z M 2.834948,2.7061998 c 0.2950134,0.01054 0.5490901,0.2444811 0.5690639,0.5440978 v 0.085305 2.5355125 C 3.4253157,6.190707 3.1803405,6.4781731 2.8607482,6.4994793 H 2.7754432 2.1468717 V 2.7070299 h 0.6285715 c 0.019977,-0.00137 0.039838,-0.00156 0.059503,-8.516e-4 z m 17.396538,0 c 0.295013,0.01054 0.548882,0.2444811 0.568855,0.5440978 v 0.085305 2.5355125 c 0.0213,0.3195923 -0.223672,0.6070584 -0.543263,0.6283646 h -0.0851 -0.628572 V 2.7070299 h 0.628572 c 0.01997,-0.00137 0.03983,-0.00156 0.0595,-8.516e-4 z m 23.181443,0.7093034 c 0.04394,-0.00536 0.0891,4.19e-5 0.131707,0.016017 -0.0426,0.063922 -0.12767,0.095918 -0.20224,0.095918 0,-0.021304 -1.43e-4,-0.032045 -0.01083,-0.032045 h -0.01061 c -0.07458,0.042609 -0.159671,0.053261 -0.244895,0.053261 l 0.159795,-0.032045 c 0.03196,-0.010652 0.05315,-0.021178 0.0851,-0.031839 -0.01065,-0.010652 -0.02118,-0.010779 -0.03184,-0.021431 0.03729,-0.02663 0.07984,-0.042531 0.123799,-0.047857 z M 37.18484,3.5166236 c -0.03196,0 -0.06396,0.01078 -0.09592,0.021431 -0.202409,0.05327 -0.404733,0.074526 -0.607142,0.063874 -0.10653,0.010652 -0.202449,0.021265 -0.30898,0.010613 H 36.05566 c -0.09588,0.042609 -0.191879,0 -0.287758,0 h -0.01061 c -0.106532,0.021304 -0.223674,0.021304 -0.330205,0 H 35.26729 l -0.01061,-0.010613 c -0.0213,0.031957 -0.03204,0.063961 -0.03204,0.095918 V 5.785807 c -0.01065,0.042609 0.01075,0.085179 0.03204,0.1171413 0.05327,0.042609 0.127712,0.053349 0.191631,0.032045 0.01065,0 0.01078,-0.010613 0.02143,-0.010613 v -0.010818 c 0.159795,-0.063922 0.330203,-0.08506 0.49,-0.042443 l 0.03204,0.031839 h 0.06387 c 0.191755,0 0.372775,4.1e-5 0.553877,-0.010614 -0.24502,0.021304 -0.564571,0.042609 -0.543265,0.05327 -0.202407,0.010652 -0.394122,0.021265 -0.59653,0.010613 0,-0.010652 -0.106613,0.042609 -0.03204,0.1065312 0.03196,-0.010652 0.06401,-0.010691 0.0853,0.010613 0.04261,0.1065312 -0.08523,0.05327 -0.106532,0.1065312 l -0.01061,0.010818 -0.01083,-0.010818 c -0.04261,0 -0.09578,0.021304 -0.127752,0.053261 -0.03196,0.063922 -0.0427,0.1385313 -0.03204,0.20245 v 5.9763293 c 0,0.07457 -0.03191,0.15996 0.04266,0.223878 0.01065,0.03196 0.02136,0.03191 0.04266,0.01061 0.06392,-0.05326 0.159754,0.01065 0.223673,-0.05326 0.06392,-0.03196 0.08523,0.0213 0.10653,0.05326 l 0.01061,0.01061 -0.01061,0.02123 c 0,0.04261 0.02127,0.0747 0.06387,0.0747 l -0.01061,-0.01061 c 0.106531,0.05326 0.05331,-0.07466 0.09592,-0.0853 l 0.01061,-0.01061 0.02143,0.01061 c 0.05326,-0.03196 0.127755,0 0.18102,-0.05326 l -0.01061,-0.01061 h 0.01061 c 0.0213,0 0.03199,0.01061 0.04266,0.01061 0.01065,0 0.02118,-4.3e-5 0.03183,0.01061 0,-0.03196 -0.01061,-0.04266 -0.06387,-0.04266 0.03196,-0.03196 0.08518,-0.04257 0.117142,-0.01061 0.05327,0.03196 8.4e-5,0.07458 -0.02123,0.10653 -0.01065,-0.01065 -0.01061,-0.02118 -0.02123,-0.03184 0,0.0213 -1.42e-4,0.05319 -0.01083,0.07449 0.0213,0.07458 0.06405,0.106531 0.127962,0.05326 0.127836,-0.08523 0.117099,0.06392 0.181018,0.106531 l -0.01061,-0.01061 c 0.27698,0.170448 0.564614,0.10653 0.852246,0.05326 0,-0.06392 -0.01061,-0.12792 -0.01061,-0.191839 V 6.4676539 c 0,-0.053271 0.01061,-0.1065302 0.01061,-0.1597957 -0.06392,-0.1384895 0.0427,-0.3090631 -0.07449,-0.4475535 h -0.01083 c -0.10653,0.010652 -0.213061,0.010779 -0.319591,0.021431 0.06391,-0.010652 0.127878,-0.031917 0.202449,-0.063873 0.03196,0 0.06396,-2.137e-4 0.09592,-0.010818 0.09588,-0.031957 0.09592,-0.1064063 0.09592,-0.1916302 -0.01065,-0.1065311 -0.01075,-0.2131032 0.02123,-0.3089801 v -1.736534 c 0,-0.031956 -0.02127,-0.053271 -0.06387,-0.053271 z m 7.30796,0.1491846 c 0.06392,0.074575 0.09601,0.1812267 0.07469,0.2877579 0.0213,0.1917549 0.04254,0.3833441 0.07449,0.5750991 0.08523,0 0.159878,0.010818 0.245103,0.010818 h 0.234284 c -0.117184,0.1917551 -0.287633,0.074488 -0.426122,0.1277534 v 0.2557165 c 0.04261,0.287633 0.08518,0.5646119 0.117142,0.8522449 0.127837,0.021304 0.255674,-0.010691 0.372857,0.063874 0.287633,-0.010652 0.564613,-0.01074 0.852246,0.021227 0.117183,0 0.223673,0.021431 0.330203,0.074692 C 46.069407,5.945643 45.781857,5.988134 45.494224,5.91356 45.387694,5.902908 45.291775,5.902999 45.185244,5.892334 h -0.319592 c -0.04261,0.085228 0.02135,0.191714 -0.01061,0.2769379 0.08523,0.6604899 0.170533,1.3209808 0.245103,1.9708176 0.01065,0.085228 0.04258,0.1704068 -0.09592,0.1704068 h -1.065306 c 0.04262,-0.3408976 0.07458,-0.6498368 0.10653,-0.958775 0.01065,-0.05327 0.04266,-0.1276715 -0.06387,-0.1489768 -0.213062,0.085228 -0.426288,0.03183 -0.650002,0.03183 -0.06391,0.021304 -0.127755,0.01074 -0.18102,-0.021227 0.05326,-0.031957 0.117101,-0.042735 0.18102,-0.021432 0.10653,0 0.213227,-0.085228 0.330411,-0.053261 0.436775,-0.074576 0.426122,-0.074526 0.479387,-0.4899991 0.106531,-0.9161637 0.223672,-1.8322023 0.330202,-2.7483659 -0.0213,-0.074575 -0.01075,-0.1599205 0.02123,-0.2344923 z m 0.862858,0.873676 c 0.0213,0.010652 0.08539,-0.010652 0.06409,0.053271 -0.01065,0.021304 -0.03196,0.042609 -0.05327,0.05327 -0.03196,0 -0.06409,-0.032122 -0.06409,-0.064089 -0.01065,-0.031957 0.03196,-0.031791 0.05326,-0.042443 z m 0.362245,0.031839 0.03204,0.032044 -0.03204,0.03183 c -0.03196,0 -0.05331,-0.021139 -0.04266,-0.042443 0.01065,-0.010652 0.02135,-0.021432 0.04266,-0.021431 z m -9.060307,0.73115 c 0.03463,0.00137 0.06916,0.00918 0.101121,0.025178 -0.04261,0.063922 -0.106571,0.032005 -0.149183,0.042657 -0.01065,0.010652 -0.03191,0.021392 -0.06387,0.032045 -0.04261,0 -0.117142,0.042531 -0.117142,-0.032045 0,-0.063922 0.07449,-0.063922 0.127755,-0.05327 0.03196,-0.010652 0.06671,-0.015901 0.101331,-0.014563 z m 37.503991,0.6219147 c 0.08523,0.063922 0.149226,0.1596298 0.191839,0.2555078 h -0.383471 c -0.03196,-0.085228 0.03191,-0.1064062 0.06387,-0.1383655 0.04261,-0.042609 0.08514,-0.085179 0.127753,-0.1171423 z m -3.547346,0.03183 h 0.02123 c 0.01065,0.021304 8.3e-5,0.032005 -0.02123,0.042657 -0.01065,-0.010652 -0.01083,-0.010561 -0.01083,-0.021226 0,-0.010652 1.42e-4,-0.01078 0.01083,-0.021432 z m 0.154179,0.040364 c 0.02147,0.00303 0.02946,0.020973 0.03744,0.04494 0,0.021304 -0.01068,0.042657 -0.04266,0.042657 -0.0213,0 -0.04261,-0.021343 -0.05327,-0.042657 -0.0213,-0.031956 0.0214,-0.042657 0.03204,-0.042657 0.01065,-0.00263 0.01926,-0.00331 0.02643,-0.00224 z M 51.214843,6.1374445 c 0.03196,0 0.0427,0.021139 0.03204,0.042443 -0.01065,0.010652 -0.032,0.02147 -0.04266,0.010818 -0.01065,-0.010652 -0.02123,-0.021392 -0.02123,-0.032045 0.01065,0 0.02119,-0.021227 0.03184,-0.021227 z m -5.944284,0.071785 c 0.111856,0.00263 0.223671,0.01873 0.330202,0.045359 -0.213061,0.042609 -0.436691,0.032005 -0.660407,-0.010613 0.106531,-0.02663 0.218348,-0.037409 0.330205,-0.034747 z m 0.836222,0.07719 c 0.01331,-0.00263 0.02658,2.136e-4 0.03725,0.010818 l 0.01061,0.010613 c -0.01065,0.010652 -0.03179,0.021227 -0.04244,0.021227 -0.01065,-0.010652 -0.02135,-0.021227 -0.04266,-0.021227 0.01065,-0.010652 0.02393,-0.018769 0.03724,-0.021431 z m 27.138684,0.05327 c 0.01065,0 0.02123,0.010778 0.02123,0.021432 -0.01065,0.010652 -0.03179,0.010561 -0.04244,0.021226 -0.01065,-0.010652 -0.01078,-0.021178 -0.02143,-0.031839 0.01065,0 0.03199,-0.010818 0.04266,-0.010818 z m -2.226531,0.05327 c 0.0213,0.010652 0.0213,0.021392 0,0.032044 h -0.02123 v -0.021227 c 0.01065,0 0.01061,-0.010818 0.02123,-0.010818 z M 54.618622,6.6434717 c 0.06658,-0.00536 0.133122,-2.126e-4 0.19704,0.015813 -0.06392,0.063922 -0.159838,0.095918 -0.255714,0.095918 -0.127838,0.010652 -0.245021,0.074575 -0.372858,0.05327 -0.255673,0.031957 -0.500652,0.031917 -0.756326,0.010614 -0.03196,0 -0.06396,0.010818 -0.09592,0.010818 -0.298287,0.042609 -0.585792,-0.010779 -0.884079,-0.021431 h -0.266328 c -0.202408,0.021304 -0.394329,0.031957 -0.596738,0.05327 -0.03196,0 -0.06391,0.010613 -0.10653,0.010613 -0.04261,0.031956 -0.10653,0.053309 -0.159795,0.042657 -0.04261,0.010652 -0.08519,8.29e-5 -0.117143,-0.021227 0.03196,-0.031957 0.07453,-0.042697 0.117143,-0.032045 0.02131,-0.031956 0.06391,-0.053261 0.106529,-0.053261 0.03196,0 0.06401,-0.010613 0.0853,-0.010613 0.191755,-0.042609 0.383552,-0.095956 0.575306,-0.1385723 0.05326,-0.010652 0.106407,0.010652 0.138367,0.053261 0.07458,0.021304 0.13849,0.042609 0.213061,0.05327 h 0.980205 c 0.149145,-0.010652 0.308816,-0.010561 0.457958,-0.021226 0.181103,-0.042609 0.362371,-0.053261 0.543475,-0.053261 0.06391,-0.02663 0.130457,-0.042531 0.197037,-0.047857 z m -9.42276,0.037243 h 0.01083 l -0.01083,0.010613 z m 28.837347,0.00498 c 0.0067,9.666e-4 0.01386,0.00293 0.02186,0.00566 0.0213,0.010652 0.03204,0.021343 0.03204,0.042657 -0.01065,0.021304 -0.03191,0.042491 -0.06387,0.031839 -0.03196,-0.010652 -0.0427,-0.031956 -0.03204,-0.053271 0.008,-0.023967 0.02206,-0.02984 0.04203,-0.026844 z m -1.192644,0.1866376 c 0.0213,0.021304 0.05334,0.042609 0.0853,0.053261 0.05326,0.010652 0.09588,0.064089 0.106529,0.11735 -0.07458,0 -0.138532,-0.010818 -0.202449,-0.010818 0,0 -4.3e-5,-0.010613 0.01061,-0.010613 0.01065,-0.031956 0.08523,-0.010561 0.05327,-0.074488 -0.0213,-0.021304 -0.04261,-0.042735 -0.05327,-0.074701 z m 0.585918,0.1597966 c 0.0213,0 0.05327,8.29e-5 0.05327,0.032045 0,0.021304 -0.0213,0.042657 -0.05327,0.042657 -0.0213,0 -0.03179,-0.010779 -0.04244,-0.021432 0,-0.021304 0.02115,-0.053261 0.04244,-0.053261 z m -0.44027,0.1344029 c 0.0043,2.136e-4 0.0088,0.00147 0.01415,0.00419 0.01065,0.010652 0.02143,0.021343 0.02143,0.042657 0,0.010652 -0.01075,0.03183 -0.03204,0.03183 -0.03196,0 -0.03184,-0.021304 -0.03184,-0.05327 0.008,-0.015978 0.01582,-0.025879 0.02829,-0.025382 z M 52.974056,7.6421785 c 0.01199,0 0.02522,0.00253 0.0412,0.0079 0.223714,0.010652 0.447511,-0.010691 0.671226,0.010613 0.372857,0.021304 0.607266,0.2769379 0.628573,0.6497958 0.01065,0.3089381 0,0.6286135 0,0.9375518 -0.01065,0.3728569 -0.01083,0.7243249 -0.01083,1.0865299 -0.01065,0.490041 -0.255673,0.74588 -0.745713,0.756533 h -0.511225 c -0.191755,0 -0.191837,-8.3e-5 -0.191837,-0.191838 V 9.3972222 c -0.479388,0.1065304 -0.96947,0.074531 -1.427552,-0.095918 -0.03196,0 -0.06376,4.13e-5 -0.09571,-0.010613 h -0.01083 c -0.06392,0.010656 -0.127756,0.010508 -0.181021,-0.021429 0.05327,-0.031959 0.127921,-0.04253 0.19184,-0.021228 h 0.10653 c 0.394163,-0.063923 0.788285,-0.09584 1.182447,-0.1171422 0.06392,0 0.14902,-0.031917 0.0851,0.095919 -0.0213,0.053261 0.05331,0.053261 0.09592,0.053261 0.06391,0 0.05326,-0.053313 0.05326,-0.095918 0,-0.3941628 0.01061,-0.7882841 0.01061,-1.1824482 V 7.8098707 c -0.0213,-0.063922 0.01079,-0.1384894 0.07469,-0.1597956 0.01065,-0.00536 0.0213,-0.0079 0.0333,-0.0079 z m -1.641862,1.6058657 v 0.042657 l 0.01061,-0.010613 c 0.01065,-0.010656 4.2e-5,-0.021398 -0.01061,-0.032043 z M 45.696682,7.6500847 h 0.02123 c 0.01065,0.010652 0.01061,0.010561 0.01061,0.021227 -0.01065,-0.010652 -0.01061,0 -0.02123,0 -0.0213,0 -0.03191,-0.010561 -0.01061,-0.021227 z m 15.527049,0.3499695 c 0.06043,-9.521e-4 0.122219,0.030835 0.154178,0.086769 -0.27698,0.063922 -0.532653,0.032044 -0.79898,0.032044 0.117183,-0.09588 0.255632,-0.031956 0.38347,-0.053261 h 0.01083 c 0.01065,0 0.02118,4.1e-5 0.03183,-0.010613 v -0.042657 h 0.159796 c 0.01863,-0.008 0.03875,-0.011939 0.05888,-0.012272 z m -17.745882,0.00224 c 0.03895,-0.004 0.07486,0.00986 0.09882,0.041819 -0.181103,0.1065302 -0.372898,0.064089 -0.575306,0.064089 0,-0.053271 0.03204,-0.095918 0.0853,-0.095918 h 0.03183 0.319593 c 0.01331,-0.00536 0.02676,-0.00868 0.03974,-0.00998 z M 64.251532,8.104038 c 0.135327,0 0.269155,0.012027 0.396992,0.035995 -0.170449,0.031957 -0.351552,0.032083 -0.532654,0.021432 -0.04261,0 -0.106529,0.031879 -0.106529,-0.032044 0,-0.031957 0.06391,-0.021227 0.106529,-0.021227 0.04527,-0.00263 0.09056,-0.00419 0.135662,-0.00419 z m 0.796067,0.018515 c 0.06003,0.00566 0.121511,0.041409 0.208068,0.081354 -0.149144,0.021304 -0.234369,0.042609 -0.319592,-0.05327 0.03994,-0.023967 0.0755,-0.031459 0.111524,-0.028094 z M 45.374176,8.5241284 c 0.08097,0.00371 0.161295,0.02068 0.237197,0.052646 l -0.05327,0.021431 h -0.01061 c -0.117185,0.031956 -0.255674,-0.032083 -0.372858,0.03183 -0.06392,0.021304 -0.138573,0.021392 -0.191837,-0.021227 0.119846,-0.059922 0.256443,-0.090826 0.391374,-0.084681 z m -1.046373,0.067415 c 0.05592,-0.004 0.111732,0.00127 0.164997,0.017266 -0.09587,0.053261 -0.213019,0.053183 -0.330203,0.021227 0.05326,-0.021304 0.109277,-0.034493 0.165206,-0.038493 z m 26.265008,0.1876765 h 0.02143 l -0.01083,0.021431 z m 2.492858,0.8842873 c 0,0.010656 0.01061,0.010508 0.01061,0.031831 -0.01065,0.010656 -0.02123,8.28e-5 -0.02123,-0.021228 0,-0.010656 -4.3e-5,-0.010613 0.01061,-0.010613 z m 0.191837,0.085102 c 0.0213,0 0.03179,0.010784 0.04244,0.021429 -0.01065,-0.010656 -0.02118,0.010613 -0.03183,0.010613 -0.01065,0 -0.0214,-0.021228 -0.03204,-0.021228 0.01065,0 0.01078,-0.010816 0.02143,-0.010816 z m 0.202243,0.053261 c 0.0213,0 0.04266,0.010741 0.04266,0.032043 v 0.010613 c 0.01065,0.010656 -0.01061,0.032043 -0.02123,0.032043 -0.03196,0.010656 -0.04266,-0.010688 -0.04266,-0.042657 0,-0.010656 0.02123,-0.021387 0.02123,-0.032043 z m 0.370361,0.035991 c 0.06772,0.00297 0.134412,0.019349 0.194335,0.049312 0.03196,0.010656 0.09592,-0.02127 0.09592,0.042657 -0.01065,0.031959 -0.06395,0.010613 -0.09592,0.010613 -0.117184,-0.021302 -0.245104,0.04253 -0.351635,-0.085304 0.0293,-0.00796 0.05935,-0.01315 0.08948,-0.015815 0.02259,-0.00202 0.04526,-0.00244 0.06783,-0.00149 z m -9.009955,0.1238003 h 0.02143 c 0.01065,0.010656 -1.06e-4,0.032043 -0.02143,0.032043 -0.01065,-0.010656 -0.01061,-0.010613 -0.01061,-0.021228 z m -18.674698,0.032043 c 0.01065,0.010656 0.01061,0.010613 0.01061,0.021228 0,0.01066 -0.01075,0.02143 -0.03204,0.02143 l -0.02123,-0.02143 c 0.01065,-0.01066 0.03199,-0.01061 0.04266,-0.021228 z m 18.211331,0.4433915 c 0.01597,0.0014 0.03188,0.0094 0.04786,0.01477 0.06392,0.03196 0.117186,0.07449 0.159798,0.127753 -0.07457,0.01065 -0.138366,0.01061 -0.19163,0.02123 -0.03196,0.01065 -0.06404,1.06e-4 -0.07469,-0.03183 v -0.01061 c -0.01065,-0.03196 -0.01051,-0.06396 0.01083,-0.09592 0.01597,-0.0213 0.03188,-0.02672 0.04786,-0.02538 z m -13.438883,0.03599 c 0.01065,0.03196 0.01069,0.06396 -0.01061,0.09592 v -0.07469 c 0,-0.01065 0.01061,-0.01061 0.01061,-0.02123 z m 14.125922,0.170406 c 0.0213,0 0.032,0.01079 0.04266,0.02143 -0.01065,0.01065 -0.02135,0.02118 -0.04266,0.03183 -0.0213,0 -0.0531,1.05e-4 -0.04244,-0.03183 0.01065,-0.01065 0.02115,-0.02143 0.04244,-0.02143 z m -0.457957,0.127961 c 0.01065,0.01065 0.02118,0.01061 0.03183,0.02123 0.0213,0.0213 0.01075,0.05322 -0.02122,0.06387 l -0.02123,-0.02123 c -0.01065,-0.0213 -0.01068,-0.05322 0.01061,-0.06387 z m -2.183879,1.328097 c 0.255674,-0.0045 0.511266,0.01947 0.766938,0.06742 0.117185,-0.0213 0.213063,0.04249 0.319593,0.0851 -0.298287,0.01065 -0.585795,0.04273 -0.88408,-0.03183 -0.13849,-0.01065 -0.26641,-0.01078 -0.404899,-0.02143 h -0.106532 c -0.372857,-0.03196 -0.735102,-0.04248 -1.107959,-0.03183 v -0.05326 h 1.161225 c 0.08523,-0.008 0.170491,-0.01265 0.255714,-0.01415 z m -0.276938,0.291086 v 0.02123 l -0.02143,-0.01061 z" />
</svg>
