<?xml version="1.0" encoding="UTF-8" standalone="no"?>
<svg
   xmlns:dc="http://purl.org/dc/elements/1.1/"
   xmlns:cc="http://creativecommons.org/ns#"
   xmlns:rdf="http://www.w3.org/1999/02/22-rdf-syntax-ns#"
   xmlns:svg="http://www.w3.org/2000/svg"
   xmlns="http://www.w3.org/2000/svg"
   xmlns:sodipodi="http://sodipodi.sourceforge.net/DTD/sodipodi-0.dtd"
   xmlns:inkscape="http://www.inkscape.org/namespaces/inkscape"
   viewBox="0 0 100 37"
   version="1.1"
   id="svg34"
   sodipodi:docname="Vivid Entertainment logo.svg"
   width="100"
   height="37"
   inkscape:version="0.92.4 (5da689c313, 2019-01-14)">
  <title
     id="title38">Vivid Entertainment logo</title>
  <metadata
     id="metadata38">
    <rdf:RDF>
      <cc:Work
         rdf:about="">
        <dc:format>image/svg+xml</dc:format>
        <dc:type
           rdf:resource="http://purl.org/dc/dcmitype/StillImage" />
        <dc:title>Vivid Entertainment logo</dc:title>
        <cc:license
           rdf:resource="http://scripts.sil.org/OFL" />
        <dc:date>9 enero 2020</dc:date>
        <dc:creator>
          <cc:Agent>
            <dc:title>EEIM</dc:title>
          </cc:Agent>
        </dc:creator>
      </cc:Work>
      <cc:License
         rdf:about="http://scripts.sil.org/OFL">
        <cc:permits
           rdf:resource="http://scripts.sil.org/pub/OFL/Reproduction" />
        <cc:permits
           rdf:resource="http://scripts.sil.org/pub/OFL/Distribution" />
        <cc:permits
           rdf:resource="http://scripts.sil.org/pub/OFL/Embedding" />
        <cc:permits
           rdf:resource="http://scripts.sil.org/pub/OFL/DerivativeWorks" />
        <cc:requires
           rdf:resource="http://scripts.sil.org/pub/OFL/Notice" />
        <cc:requires
           rdf:resource="http://scripts.sil.org/pub/OFL/Attribution" />
        <cc:requires
           rdf:resource="http://scripts.sil.org/pub/OFL/ShareAlike" />
        <cc:requires
           rdf:resource="http://scripts.sil.org/pub/OFL/DerivativeRenaming" />
        <cc:requires
           rdf:resource="http://scripts.sil.org/pub/OFL/BundlingWhenSelling" />
      </cc:License>
    </rdf:RDF>
  </metadata>
  <sodipodi:namedview
     pagecolor="#ffffff"
     bordercolor="#666666"
     borderopacity="1"
     objecttolerance="10"
     gridtolerance="10"
     guidetolerance="10"
     inkscape:pageopacity="0"
     inkscape:pageshadow="2"
     inkscape:window-width="1366"
     inkscape:window-height="705"
     id="namedview36"
     showgrid="false"
     inkscape:showpageshadow="false"
     inkscape:zoom="1"
     inkscape:cx="91.12001"
     inkscape:cy="16.801496"
     inkscape:window-x="-8"
     inkscape:window-y="-8"
     inkscape:window-maximized="1"
     inkscape:current-layer="#336699ff" />
  <defs
     id="defs4">
    <style
       id="style2">.cls-1{fill:#eb2227;}</style>
  </defs>
  <g
     id="#d32727ff"
     transform="matrix(0.01656116,0,0,0.01656116,185.44458,-7.739453)"
     style="fill:#00ff00">
    <g
       id="#336699ff"
       transform="matrix(5.98363,0,0,5.98363,-12942.258,-2969.5715)">
      <path
         style="opacity:1;fill:#336699;stroke-width:1.00472319"
         d="m 1294.2511,578.53321 -37.9479,34.68354 -161.1374,276.84146 -52.7287,-168.47117 c 0,0 -15.5419,-4.83268 -23.3084,-7.24402 l 26.6139,87.01796 -86.70749,97.54841 104.48199,-33.1647 23.8116,77.77529 61.7699,-108.9531 117.5335,-41.16225 -79.7357,-25.49092 z m -65.146,59.10892 -116.5681,105.68578 -34.8939,-10.8307 28.3329,78.58034 z m -918.05608,85.7905 c -8.76692,0.0248 -15.07028,0.22069 -14.85892,0.73588 l 64.0202,154.7573 60.35408,0.0103 68.38096,-154.7676 -40.70154,-0.0206 -43.47447,111.695 -43.22267,-111.695 c 0,0 -31.21043,-0.7699 -50.49764,-0.71527 z m 556.33655,0.70939 c -16.31048,10e-4 -29.35872,0.006 -29.35872,0.006 v 154.7882 c 0,0 52.21556,0.01 78.31827,0 23.86218,-0.0201 48.03521,-7.35396 66.86373,-22.23392 13.36281,-10.48931 23.50085,-25.29006 27.42935,-41.89813 3.8179,-16.3368 2.9436,-34.25092 -4.7023,-49.38205 -6.52077,-13.00111 -18.06494,-22.89772 -31.00577,-29.21743 -18.13526,-8.8717 -38.58167,-11.97605 -58.61585,-12.04637 -13.04633,-0.0151 -32.61834,-0.0175 -48.92871,-0.0162 z m -369.82895,0.006 v 154.7882 h 59.59023 V 724.14791 Z m 132.101,0 -65.40808,0.0206 64.08205,154.7676 60.35251,-0.0103 68.40165,-154.7573 -40.74132,-0.0206 c 0,0 -44.74776,111.3341 -43.48472,111.69499 z m 135.65671,0 v 154.7882 l 59.59023,0.0104 v -154.7985 z m 136.28377,23.53789 c 9.89793,-0.0596 20.04171,0.82464 28.76271,5.87086 10.85101,5.84749 17.60205,17.33086 19.68182,29.24686 2.0195,11.58446 1.32724,23.53174 -0.77263,35.05591 -2.37115,12.32795 -8.32936,24.89668 -19.48178,31.5178 -9.65539,6.02834 -21.40081,6.25892 -32.41257,6.00773 V 747.75939 c 1.39907,-0.0377 2.8085,-0.0651 4.22245,-0.0736 z"
         id="path2"
         inkscape:connector-curvature="0" />
    </g>
  </g>
</svg>
